<svg width="876" height="39" viewBox="0 0 876 39" fill="none" xmlns="http://www.w3.org/2000/svg">
<path d="M0.632812 23.4258L5.69531 21.7031C6.30469 22.8281 7.23047 23.7656 8.47266 24.5156C9.73828 25.2656 11.0508 25.6406 12.4102 25.6406C13.7461 25.6406 14.8125 25.3242 15.6094 24.6914C16.4297 24.0352 16.8398 23.2148 16.8398 22.2305C16.8398 21.1055 16.3828 20.2148 15.4688 19.5586C14.5547 18.8789 13.207 18.2344 11.4258 17.625C8.66016 16.7109 6.80859 16.0078 5.87109 15.5156C3.08203 13.9922 1.6875 11.7422 1.6875 8.76562C1.6875 6.32812 2.66016 4.35938 4.60547 2.85938C6.55078 1.33594 9.04688 0.574219 12.0938 0.574219C14.7188 0.574219 16.9336 1.19531 18.7383 2.4375C20.5664 3.65625 21.9141 5.23828 22.7812 7.18359L17.8594 8.80078C16.3125 6.66797 14.3789 5.60156 12.0586 5.60156C10.7227 5.60156 9.66797 5.89453 8.89453 6.48047C8.12109 7.04297 7.73438 7.79297 7.73438 8.73047C7.73438 9.12891 7.79297 9.49219 7.91016 9.82031C8.02734 10.1484 8.25 10.4531 8.57812 10.7344C8.92969 11.0156 9.22266 11.25 9.45703 11.4375C9.71484 11.625 10.1367 11.8359 10.7227 12.0703C11.332 12.3047 11.7773 12.4805 12.0586 12.5977C12.3633 12.6914 12.9023 12.8555 13.6758 13.0898C14.4727 13.3242 15 13.4883 15.2578 13.582C16.3125 13.9336 17.25 14.3203 18.0703 14.7422C18.9141 15.1641 19.7227 15.7031 20.4961 16.3594C21.2695 16.9922 21.8672 17.7891 22.2891 18.75C22.7109 19.7109 22.9219 20.7891 22.9219 21.9844C22.9219 24.7266 21.9023 26.8594 19.8633 28.3828C17.8477 29.8828 15.3164 30.6328 12.2695 30.6328C9.62109 30.6328 7.25391 29.9883 5.16797 28.6992C3.08203 27.4102 1.57031 25.6523 0.632812 23.4258Z" fill="#0173F9"/>
<path d="M30.6562 19.418C30.6562 21.7383 31.0898 23.3906 31.957 24.375C32.8242 25.3594 33.7852 25.8516 34.8398 25.8516C35.2852 25.8516 35.7188 25.7578 36.1406 25.5703C36.5859 25.3594 37.0312 25.043 37.4766 24.6211C37.9219 24.1758 38.2852 23.5078 38.5664 22.6172C38.8477 21.7031 38.9883 20.6367 38.9883 19.418C38.9883 18.1758 38.8477 17.1094 38.5664 16.2188C38.3086 15.3281 37.9453 14.6602 37.4766 14.2148C37.0312 13.7695 36.5859 13.4531 36.1406 13.2656C35.7188 13.0781 35.2852 12.9844 34.8398 12.9844C33.7852 12.9844 32.8242 13.4766 31.957 14.4609C31.0898 15.4219 30.6562 17.0742 30.6562 19.418ZM24.8906 19.418C24.8906 17.9648 25.0781 16.5938 25.4531 15.3047C25.8281 13.9922 26.3906 12.7969 27.1406 11.7188C27.9141 10.6406 28.957 9.78516 30.2695 9.15234C31.6055 8.51953 33.1289 8.20312 34.8398 8.20312C36.5508 8.20312 38.0625 8.51953 39.375 9.15234C40.6875 9.78516 41.7188 10.6406 42.4688 11.7188C43.2422 12.7969 43.8164 13.9922 44.1914 15.3047C44.5664 16.5938 44.7539 17.9648 44.7539 19.418C44.7539 20.3555 44.6719 21.293 44.5078 22.2305C44.3438 23.1445 44.0273 24.1289 43.5586 25.1836C43.1133 26.2148 42.5391 27.1289 41.8359 27.9258C41.1328 28.6992 40.1719 29.3438 38.9531 29.8594C37.7578 30.375 36.3867 30.6328 34.8398 30.6328C33.3164 30.6328 31.957 30.3867 30.7617 29.8945C29.5664 29.4023 28.6055 28.7812 27.8789 28.0312C27.1523 27.2578 26.5547 26.3672 26.0859 25.3594C25.6406 24.3281 25.3242 23.332 25.1367 22.3711C24.9727 21.4102 24.8906 20.4258 24.8906 19.418Z" fill="#0173F9"/>
<path d="M46.8984 19.418C46.8984 15.9492 47.8359 13.2188 49.7109 11.2266C51.5859 9.21094 53.9766 8.20312 56.8828 8.20312C59.1328 8.20312 60.9961 8.89453 62.4727 10.2773C63.9492 11.6602 64.8633 13.207 65.2148 14.918L60.4688 16.2188C60.2344 15.3516 59.8242 14.6016 59.2383 13.9688C58.6523 13.3125 57.9023 12.9844 56.9883 12.9844C55.582 12.9844 54.5156 13.5938 53.7891 14.8125C53.0625 16.0312 52.6992 17.5664 52.6992 19.418C52.6992 21.5039 53.0977 23.0977 53.8945 24.1992C54.7148 25.3008 55.7461 25.8516 56.9883 25.8516C58.0195 25.8516 58.8867 25.5 59.5898 24.7969C60.293 24.0938 60.75 23.2852 60.9609 22.3711L65.707 23.6367C65.3086 25.4648 64.2891 27.0938 62.6484 28.5234C61.0078 29.9297 59.0859 30.6328 56.8828 30.6328C53.9297 30.6328 51.5273 29.6133 49.6758 27.5742C47.8242 25.5352 46.8984 22.8164 46.8984 19.418Z" fill="#0173F9"/>
<path d="M68.6602 6.58594V0.820312H74.3203V6.58594H68.6602ZM68.7305 30V8.83594H74.2852V30H68.7305Z" fill="#0173F9"/>
<path d="M83.4609 23.7422C83.4609 24.375 83.707 24.9141 84.1992 25.3594C84.6914 25.7812 85.3242 25.9922 86.0977 25.9922C87.3398 25.9922 88.3945 25.5703 89.2617 24.7266C90.1289 23.8828 90.5625 22.7578 90.5625 21.3516V19.9453C89.2031 20.2734 88.125 20.4961 87.3281 20.6133C84.75 20.9883 83.4609 22.0312 83.4609 23.7422ZM77.7656 24.2344C77.7656 22.3125 78.5039 20.7188 79.9805 19.4531C81.457 18.1875 83.625 17.3438 86.4844 16.9219C88.8281 16.5469 90.1875 16.3008 90.5625 16.1836V15.0938C90.5625 14.2266 90.2578 13.5938 89.6484 13.1953C89.0625 12.7734 88.2891 12.5625 87.3281 12.5625C85.125 12.5625 83.2266 13.4297 81.6328 15.1641L78.3281 12.3164C80.625 9.57422 83.6016 8.20312 87.2578 8.20312C90.4922 8.20312 92.7891 8.97656 94.1484 10.5234C95.5078 12.0703 96.1875 14.2617 96.1875 17.0977V30H90.7383V27.8203C90.3164 28.6172 89.6133 29.2852 88.6289 29.8242C87.6445 30.3633 86.5195 30.6328 85.2539 30.6328C82.957 30.6328 81.1289 30.0469 79.7695 28.875C78.4336 27.6797 77.7656 26.1328 77.7656 24.2344Z" fill="#0173F9"/>
<path d="M100.582 30V0.328125H106.207V30H100.582Z" fill="#0173F9"/>
<path d="M120.27 30V1.20703H127.301L131.555 13.3359C131.883 14.2969 132.305 15.6328 132.82 17.3438C133.336 19.0312 133.688 20.168 133.875 20.7539H134.016C135.281 16.8867 136.102 14.4141 136.477 13.3359L140.625 1.20703H147.691V30H141.891V18.8906C141.891 17.0625 142.102 14.0625 142.523 9.89062H142.348L139.887 17.4141L136.02 28.6641H131.941L128.109 17.4141L125.613 9.82031H125.402C125.824 13.2656 126.035 16.2891 126.035 18.8906V30H120.27Z" fill="#0173F9"/>
<path d="M151.523 19.3477C151.523 15.9023 152.484 13.1836 154.406 11.1914C156.328 9.19922 158.707 8.20312 161.543 8.20312C164.285 8.20312 166.605 9.23438 168.504 11.2969C170.426 13.3359 171.387 16.0195 171.387 19.3477C171.387 20.0273 171.352 20.707 171.281 21.3867H157.219C157.219 22.7227 157.641 23.8594 158.484 24.7969C159.328 25.7109 160.465 26.168 161.895 26.168C162.949 26.168 163.863 25.9102 164.637 25.3945C165.434 24.8555 166.031 24.1758 166.43 23.3555L171.105 25.0078C170.402 26.5781 169.254 27.9141 167.66 29.0156C166.066 30.0938 164.086 30.6328 161.719 30.6328C158.742 30.6328 156.293 29.6133 154.371 27.5742C152.473 25.5352 151.523 22.793 151.523 19.3477ZM157.254 17.5547H165.656C165.656 16.1953 165.293 15.0352 164.566 14.0742C163.863 13.0898 162.855 12.5977 161.543 12.5977C160.207 12.5977 159.152 13.0898 158.379 14.0742C157.629 15.0586 157.254 16.2188 157.254 17.5547Z" fill="#0173F9"/>
<path d="M173.461 19.3828C173.461 15.8906 174.305 13.1602 175.992 11.1914C177.703 9.19922 179.895 8.20312 182.566 8.20312C184.535 8.20312 186.117 8.92969 187.312 10.3828V0.328125H192.902V30H187.453V27.8906C187.031 28.6172 186.363 29.2617 185.449 29.8242C184.535 30.3633 183.562 30.6328 182.531 30.6328C181.406 30.6328 180.316 30.4219 179.262 30C178.23 29.5781 177.27 28.9453 176.379 28.1016C175.488 27.2578 174.773 26.0859 174.234 24.5859C173.719 23.0859 173.461 21.3516 173.461 19.3828ZM179.227 19.3828C179.227 21.4688 179.59 23.0742 180.316 24.1992C181.066 25.3008 182.074 25.8516 183.34 25.8516C184.582 25.8516 185.555 25.2773 186.258 24.1289C186.984 22.9805 187.348 21.3984 187.348 19.3828C187.348 17.4609 187.008 15.9141 186.328 14.7422C185.648 13.5703 184.652 12.9844 183.34 12.9844C181.98 12.9844 180.949 13.5703 180.246 14.7422C179.566 15.8906 179.227 17.4375 179.227 19.3828Z" fill="#0173F9"/>
<path d="M197.648 6.58594V0.820312H203.309V6.58594H197.648ZM197.719 30V8.83594H203.273V30H197.719Z" fill="#0173F9"/>
<path d="M212.449 23.7422C212.449 24.375 212.695 24.9141 213.188 25.3594C213.68 25.7812 214.312 25.9922 215.086 25.9922C216.328 25.9922 217.383 25.5703 218.25 24.7266C219.117 23.8828 219.551 22.7578 219.551 21.3516V19.9453C218.191 20.2734 217.113 20.4961 216.316 20.6133C213.738 20.9883 212.449 22.0312 212.449 23.7422ZM206.754 24.2344C206.754 22.3125 207.492 20.7188 208.969 19.4531C210.445 18.1875 212.613 17.3438 215.473 16.9219C217.816 16.5469 219.176 16.3008 219.551 16.1836V15.0938C219.551 14.2266 219.246 13.5938 218.637 13.1953C218.051 12.7734 217.277 12.5625 216.316 12.5625C214.113 12.5625 212.215 13.4297 210.621 15.1641L207.316 12.3164C209.613 9.57422 212.59 8.20312 216.246 8.20312C219.48 8.20312 221.777 8.97656 223.137 10.5234C224.496 12.0703 225.176 14.2617 225.176 17.0977V30H219.727V27.8203C219.305 28.6172 218.602 29.2852 217.617 29.8242C216.633 30.3633 215.508 30.6328 214.242 30.6328C211.945 30.6328 210.117 30.0469 208.758 28.875C207.422 27.6797 206.754 26.1328 206.754 24.2344Z" fill="#0173F9"/>
<path d="M238.605 30V1.20703H245.637L249.891 13.3359C250.219 14.2969 250.641 15.6328 251.156 17.3438C251.672 19.0312 252.023 20.168 252.211 20.7539H252.352C253.617 16.8867 254.438 14.4141 254.812 13.3359L258.961 1.20703H266.027V30H260.227V18.8906C260.227 17.0625 260.438 14.0625 260.859 9.89062H260.684L258.223 17.4141L254.355 28.6641H250.277L246.445 17.4141L243.949 9.82031H243.738C244.16 13.2656 244.371 16.2891 244.371 18.8906V30H238.605Z" fill="#0173F9"/>
<path d="M275.52 23.7422C275.52 24.375 275.766 24.9141 276.258 25.3594C276.75 25.7812 277.383 25.9922 278.156 25.9922C279.398 25.9922 280.453 25.5703 281.32 24.7266C282.188 23.8828 282.621 22.7578 282.621 21.3516V19.9453C281.262 20.2734 280.184 20.4961 279.387 20.6133C276.809 20.9883 275.52 22.0312 275.52 23.7422ZM269.824 24.2344C269.824 22.3125 270.562 20.7188 272.039 19.4531C273.516 18.1875 275.684 17.3438 278.543 16.9219C280.887 16.5469 282.246 16.3008 282.621 16.1836V15.0938C282.621 14.2266 282.316 13.5938 281.707 13.1953C281.121 12.7734 280.348 12.5625 279.387 12.5625C277.184 12.5625 275.285 13.4297 273.691 15.1641L270.387 12.3164C272.684 9.57422 275.66 8.20312 279.316 8.20312C282.551 8.20312 284.848 8.97656 286.207 10.5234C287.566 12.0703 288.246 14.2617 288.246 17.0977V30H282.797V27.8203C282.375 28.6172 281.672 29.2852 280.688 29.8242C279.703 30.3633 278.578 30.6328 277.312 30.6328C275.016 30.6328 273.188 30.0469 271.828 28.875C270.492 27.6797 269.824 26.1328 269.824 24.2344Z" fill="#0173F9"/>
<path d="M292.289 30V8.83594H297.668V10.9102H297.703C298.852 9.10547 300.645 8.20312 303.082 8.20312C307.746 8.20312 310.078 10.9453 310.078 16.4297V30H304.488V17.0977C304.488 15.5977 304.277 14.543 303.855 13.9336C303.434 13.3008 302.766 12.9844 301.852 12.9844C300.68 12.9844 299.73 13.4648 299.004 14.4258C298.277 15.3633 297.914 16.5469 297.914 17.9766V30H292.289Z" fill="#0173F9"/>
<path d="M318.727 23.7422C318.727 24.375 318.973 24.9141 319.465 25.3594C319.957 25.7812 320.59 25.9922 321.363 25.9922C322.605 25.9922 323.66 25.5703 324.527 24.7266C325.395 23.8828 325.828 22.7578 325.828 21.3516V19.9453C324.469 20.2734 323.391 20.4961 322.594 20.6133C320.016 20.9883 318.727 22.0312 318.727 23.7422ZM313.031 24.2344C313.031 22.3125 313.77 20.7188 315.246 19.4531C316.723 18.1875 318.891 17.3438 321.75 16.9219C324.094 16.5469 325.453 16.3008 325.828 16.1836V15.0938C325.828 14.2266 325.523 13.5938 324.914 13.1953C324.328 12.7734 323.555 12.5625 322.594 12.5625C320.391 12.5625 318.492 13.4297 316.898 15.1641L313.594 12.3164C315.891 9.57422 318.867 8.20312 322.523 8.20312C325.758 8.20312 328.055 8.97656 329.414 10.5234C330.773 12.0703 331.453 14.2617 331.453 17.0977V30H326.004V27.8203C325.582 28.6172 324.879 29.2852 323.895 29.8242C322.91 30.3633 321.785 30.6328 320.52 30.6328C318.223 30.6328 316.395 30.0469 315.035 28.875C313.699 27.6797 313.031 26.1328 313.031 24.2344Z" fill="#0173F9"/>
<path d="M340.312 18.9961C340.312 20.9414 340.664 22.4297 341.367 23.4609C342.07 24.4688 342.996 24.9727 344.145 24.9727C345.293 24.9727 346.207 24.4688 346.887 23.4609C347.566 22.4531 347.906 20.9648 347.906 18.9961C347.906 17.0508 347.555 15.5625 346.852 14.5312C346.172 13.5 345.27 12.9844 344.145 12.9844C342.973 12.9844 342.035 13.5117 341.332 14.5664C340.652 15.5977 340.312 17.0742 340.312 18.9961ZM334.547 19.0312C334.547 15.7031 335.379 13.0664 337.043 11.1211C338.73 9.17578 340.852 8.20312 343.406 8.20312C344.508 8.20312 345.445 8.46094 346.219 8.97656C346.992 9.49219 347.555 10.0547 347.906 10.6641V8.83594H353.531V26.8008C353.531 30.7852 352.711 33.7148 351.07 35.5898C349.453 37.4883 346.992 38.4375 343.688 38.4375C340.008 38.4375 337.172 37.0312 335.18 34.2188L338.836 31.6172C340.125 33.1875 341.777 33.9727 343.793 33.9727C344.848 33.9727 345.762 33.5859 346.535 32.8125C347.332 32.0391 347.777 31.043 347.871 29.8242C347.941 28.9805 347.977 28.3008 347.977 27.7852C347.555 28.3477 346.91 28.8164 346.043 29.1914C345.199 29.5664 344.379 29.7539 343.582 29.7539C340.91 29.7539 338.73 28.7812 337.043 26.8359C335.379 24.8906 334.547 22.2891 334.547 19.0312Z" fill="#0173F9"/>
<path d="M356.625 19.3477C356.625 15.9023 357.586 13.1836 359.508 11.1914C361.43 9.19922 363.809 8.20312 366.645 8.20312C369.387 8.20312 371.707 9.23438 373.605 11.2969C375.527 13.3359 376.488 16.0195 376.488 19.3477C376.488 20.0273 376.453 20.707 376.383 21.3867H362.32C362.32 22.7227 362.742 23.8594 363.586 24.7969C364.43 25.7109 365.566 26.168 366.996 26.168C368.051 26.168 368.965 25.9102 369.738 25.3945C370.535 24.8555 371.133 24.1758 371.531 23.3555L376.207 25.0078C375.504 26.5781 374.355 27.9141 372.762 29.0156C371.168 30.0938 369.188 30.6328 366.82 30.6328C363.844 30.6328 361.395 29.6133 359.473 27.5742C357.574 25.5352 356.625 22.793 356.625 19.3477ZM362.355 17.5547H370.758C370.758 16.1953 370.395 15.0352 369.668 14.0742C368.965 13.0898 367.957 12.5977 366.645 12.5977C365.309 12.5977 364.254 13.0898 363.48 14.0742C362.73 15.0586 362.355 16.2188 362.355 17.5547Z" fill="#0173F9"/>
<path d="M379.652 30V8.83594H385.031V10.8398H385.066C385.301 10.5117 385.594 10.1836 385.945 9.85547C386.32 9.50391 386.906 9.14062 387.703 8.76562C388.5 8.39062 389.32 8.20312 390.164 8.20312C392.367 8.20312 394.02 9.25781 395.121 11.3672C396.457 9.25781 398.496 8.20312 401.238 8.20312C402.504 8.20312 403.582 8.42578 404.473 8.87109C405.387 9.31641 406.09 9.94922 406.582 10.7695C407.074 11.5664 407.426 12.4336 407.637 13.3711C407.848 14.2852 407.953 15.3047 407.953 16.4297V30H402.328V16.5352C402.328 15.3398 402.152 14.4492 401.801 13.8633C401.449 13.2773 400.863 12.9844 400.043 12.9844C398.965 12.9844 398.109 13.4414 397.477 14.3555C396.867 15.2461 396.562 16.3125 396.562 17.5547V30H391.008V16.3945C391.008 15.3398 390.809 14.5078 390.41 13.8984C390.035 13.2891 389.473 12.9844 388.723 12.9844C387.574 12.9844 386.707 13.4062 386.121 14.25C385.559 15.0703 385.277 16.1719 385.277 17.5547V30H379.652Z" fill="#0173F9"/>
<path d="M410.906 19.3477C410.906 15.9023 411.867 13.1836 413.789 11.1914C415.711 9.19922 418.09 8.20312 420.926 8.20312C423.668 8.20312 425.988 9.23438 427.887 11.2969C429.809 13.3359 430.77 16.0195 430.77 19.3477C430.77 20.0273 430.734 20.707 430.664 21.3867H416.602C416.602 22.7227 417.023 23.8594 417.867 24.7969C418.711 25.7109 419.848 26.168 421.277 26.168C422.332 26.168 423.246 25.9102 424.02 25.3945C424.816 24.8555 425.414 24.1758 425.812 23.3555L430.488 25.0078C429.785 26.5781 428.637 27.9141 427.043 29.0156C425.449 30.0938 423.469 30.6328 421.102 30.6328C418.125 30.6328 415.676 29.6133 413.754 27.5742C411.855 25.5352 410.906 22.793 410.906 19.3477ZM416.637 17.5547H425.039C425.039 16.1953 424.676 15.0352 423.949 14.0742C423.246 13.0898 422.238 12.5977 420.926 12.5977C419.59 12.5977 418.535 13.0898 417.762 14.0742C417.012 15.0586 416.637 16.2188 416.637 17.5547Z" fill="#0173F9"/>
<path d="M433.934 30V8.83594H439.312V10.9102H439.348C440.496 9.10547 442.289 8.20312 444.727 8.20312C449.391 8.20312 451.723 10.9453 451.723 16.4297V30H446.133V17.0977C446.133 15.5977 445.922 14.543 445.5 13.9336C445.078 13.3008 444.41 12.9844 443.496 12.9844C442.324 12.9844 441.375 13.4648 440.648 14.4258C439.922 15.3633 439.559 16.5469 439.559 17.9766V30H433.934Z" fill="#0173F9"/>
<path d="M454.043 13.582V8.83594H457.066V2.82422H462.621V8.83594H467.016V13.582H462.621V22.8984C462.621 24.4453 463.301 25.2188 464.66 25.2188H467.051V30H463.957C459.363 30 457.066 27.7383 457.066 23.2148V13.582H454.043Z" fill="#0173F9"/>
<path d="M484.137 22.0547C484.137 23.2266 484.512 24.1641 485.262 24.8672C486.012 25.5469 486.984 25.8867 488.18 25.8867C489.703 25.8867 491.109 25.2773 492.398 24.0586L486.879 17.0273C485.051 18.5742 484.137 20.25 484.137 22.0547ZM478.336 22.1602C478.336 18.7148 480.281 15.7031 484.172 13.125C482.602 11.1797 481.816 9.51562 481.816 8.13281C481.816 6.04688 482.543 4.40625 483.996 3.21094C485.449 2.01562 487.383 1.41797 489.797 1.41797C491.953 1.41797 493.77 1.96875 495.246 3.07031C496.746 4.17188 497.801 5.51953 498.41 7.11328L494.297 8.90625C493.195 7.07812 491.871 6.16406 490.324 6.16406C488.52 6.16406 487.617 6.87891 487.617 8.30859C487.617 8.61328 487.723 9 487.934 9.46875C488.168 9.9375 488.555 10.5586 489.094 11.332C489.656 12.1055 490.172 12.7969 490.641 13.4062C491.109 14.0156 491.836 14.9531 492.82 16.2188C493.828 17.4609 494.625 18.457 495.211 19.207C495.586 18.1523 495.902 16.8047 496.16 15.1641L501.258 16.0781C501.023 17.6484 500.648 19.1367 500.133 20.543C499.617 21.9258 499.125 22.9922 498.656 23.7422L503.684 30H496.898L495.422 28.1367C493.266 29.8242 490.852 30.668 488.18 30.668C485.086 30.668 482.672 29.8477 480.938 28.207C479.203 26.543 478.336 24.5273 478.336 22.1602Z" fill="#0173F9"/>
<path d="M513.633 23.4258L518.695 21.7031C519.305 22.8281 520.23 23.7656 521.473 24.5156C522.738 25.2656 524.051 25.6406 525.41 25.6406C526.746 25.6406 527.812 25.3242 528.609 24.6914C529.43 24.0352 529.84 23.2148 529.84 22.2305C529.84 21.1055 529.383 20.2148 528.469 19.5586C527.555 18.8789 526.207 18.2344 524.426 17.625C521.66 16.7109 519.809 16.0078 518.871 15.5156C516.082 13.9922 514.688 11.7422 514.688 8.76562C514.688 6.32812 515.66 4.35938 517.605 2.85938C519.551 1.33594 522.047 0.574219 525.094 0.574219C527.719 0.574219 529.934 1.19531 531.738 2.4375C533.566 3.65625 534.914 5.23828 535.781 7.18359L530.859 8.80078C529.312 6.66797 527.379 5.60156 525.059 5.60156C523.723 5.60156 522.668 5.89453 521.895 6.48047C521.121 7.04297 520.734 7.79297 520.734 8.73047C520.734 9.12891 520.793 9.49219 520.91 9.82031C521.027 10.1484 521.25 10.4531 521.578 10.7344C521.93 11.0156 522.223 11.25 522.457 11.4375C522.715 11.625 523.137 11.8359 523.723 12.0703C524.332 12.3047 524.777 12.4805 525.059 12.5977C525.363 12.6914 525.902 12.8555 526.676 13.0898C527.473 13.3242 528 13.4883 528.258 13.582C529.312 13.9336 530.25 14.3203 531.07 14.7422C531.914 15.1641 532.723 15.7031 533.496 16.3594C534.27 16.9922 534.867 17.7891 535.289 18.75C535.711 19.7109 535.922 20.7891 535.922 21.9844C535.922 24.7266 534.902 26.8594 532.863 28.3828C530.848 29.8828 528.316 30.6328 525.27 30.6328C522.621 30.6328 520.254 29.9883 518.168 28.6992C516.082 27.4102 514.57 25.6523 513.633 23.4258Z" fill="#0173F9"/>
<path d="M537.398 13.582V8.83594H540.422V2.82422H545.977V8.83594H550.371V13.582H545.977V22.8984C545.977 24.4453 546.656 25.2188 548.016 25.2188H550.406V30H547.312C542.719 30 540.422 27.7383 540.422 23.2148V13.582H537.398Z" fill="#0173F9"/>
<path d="M553.605 30V8.83594H558.984V10.6289C559.43 9.97266 560.062 9.41016 560.883 8.94141C561.727 8.44922 562.664 8.20312 563.695 8.20312C564.914 8.20312 565.781 8.33203 566.297 8.58984V13.7227C565.477 13.4648 564.609 13.3359 563.695 13.3359C562.195 13.3359 561.07 13.9219 560.32 15.0938C559.594 16.2656 559.23 17.8359 559.23 19.8047V30H553.605Z" fill="#0173F9"/>
<path d="M572.801 23.7422C572.801 24.375 573.047 24.9141 573.539 25.3594C574.031 25.7812 574.664 25.9922 575.438 25.9922C576.68 25.9922 577.734 25.5703 578.602 24.7266C579.469 23.8828 579.902 22.7578 579.902 21.3516V19.9453C578.543 20.2734 577.465 20.4961 576.668 20.6133C574.09 20.9883 572.801 22.0312 572.801 23.7422ZM567.105 24.2344C567.105 22.3125 567.844 20.7188 569.32 19.4531C570.797 18.1875 572.965 17.3438 575.824 16.9219C578.168 16.5469 579.527 16.3008 579.902 16.1836V15.0938C579.902 14.2266 579.598 13.5938 578.988 13.1953C578.402 12.7734 577.629 12.5625 576.668 12.5625C574.465 12.5625 572.566 13.4297 570.973 15.1641L567.668 12.3164C569.965 9.57422 572.941 8.20312 576.598 8.20312C579.832 8.20312 582.129 8.97656 583.488 10.5234C584.848 12.0703 585.527 14.2617 585.527 17.0977V30H580.078V27.8203C579.656 28.6172 578.953 29.2852 577.969 29.8242C576.984 30.3633 575.859 30.6328 574.594 30.6328C572.297 30.6328 570.469 30.0469 569.109 28.875C567.773 27.6797 567.105 26.1328 567.105 24.2344Z" fill="#0173F9"/>
<path d="M587.988 13.582V8.83594H591.012V2.82422H596.566V8.83594H600.961V13.582H596.566V22.8984C596.566 24.4453 597.246 25.2188 598.605 25.2188H600.996V30H597.902C593.309 30 591.012 27.7383 591.012 23.2148V13.582H587.988Z" fill="#0173F9"/>
<path d="M603.105 19.3477C603.105 15.9023 604.066 13.1836 605.988 11.1914C607.91 9.19922 610.289 8.20312 613.125 8.20312C615.867 8.20312 618.188 9.23438 620.086 11.2969C622.008 13.3359 622.969 16.0195 622.969 19.3477C622.969 20.0273 622.934 20.707 622.863 21.3867H608.801C608.801 22.7227 609.223 23.8594 610.066 24.7969C610.91 25.7109 612.047 26.168 613.477 26.168C614.531 26.168 615.445 25.9102 616.219 25.3945C617.016 24.8555 617.613 24.1758 618.012 23.3555L622.688 25.0078C621.984 26.5781 620.836 27.9141 619.242 29.0156C617.648 30.0938 615.668 30.6328 613.301 30.6328C610.324 30.6328 607.875 29.6133 605.953 27.5742C604.055 25.5352 603.105 22.793 603.105 19.3477ZM608.836 17.5547H617.238C617.238 16.1953 616.875 15.0352 616.148 14.0742C615.445 13.0898 614.438 12.5977 613.125 12.5977C611.789 12.5977 610.734 13.0898 609.961 14.0742C609.211 15.0586 608.836 16.2188 608.836 17.5547Z" fill="#0173F9"/>
<path d="M630.949 18.9961C630.949 20.9414 631.301 22.4297 632.004 23.4609C632.707 24.4688 633.633 24.9727 634.781 24.9727C635.93 24.9727 636.844 24.4688 637.523 23.4609C638.203 22.4531 638.543 20.9648 638.543 18.9961C638.543 17.0508 638.191 15.5625 637.488 14.5312C636.809 13.5 635.906 12.9844 634.781 12.9844C633.609 12.9844 632.672 13.5117 631.969 14.5664C631.289 15.5977 630.949 17.0742 630.949 18.9961ZM625.184 19.0312C625.184 15.7031 626.016 13.0664 627.68 11.1211C629.367 9.17578 631.488 8.20312 634.043 8.20312C635.145 8.20312 636.082 8.46094 636.855 8.97656C637.629 9.49219 638.191 10.0547 638.543 10.6641V8.83594H644.168V26.8008C644.168 30.7852 643.348 33.7148 641.707 35.5898C640.09 37.4883 637.629 38.4375 634.324 38.4375C630.645 38.4375 627.809 37.0312 625.816 34.2188L629.473 31.6172C630.762 33.1875 632.414 33.9727 634.43 33.9727C635.484 33.9727 636.398 33.5859 637.172 32.8125C637.969 32.0391 638.414 31.043 638.508 29.8242C638.578 28.9805 638.613 28.3008 638.613 27.7852C638.191 28.3477 637.547 28.8164 636.68 29.1914C635.836 29.5664 635.016 29.7539 634.219 29.7539C631.547 29.7539 629.367 28.7812 627.68 26.8359C626.016 24.8906 625.184 22.2891 625.184 19.0312Z" fill="#0173F9"/>
<path d="M648.562 6.58594V0.820312H654.223V6.58594H648.562ZM648.633 30V8.83594H654.188V30H648.633Z" fill="#0173F9"/>
<path d="M657.703 19.418C657.703 15.9492 658.641 13.2188 660.516 11.2266C662.391 9.21094 664.781 8.20312 667.688 8.20312C669.938 8.20312 671.801 8.89453 673.277 10.2773C674.754 11.6602 675.668 13.207 676.02 14.918L671.273 16.2188C671.039 15.3516 670.629 14.6016 670.043 13.9688C669.457 13.3125 668.707 12.9844 667.793 12.9844C666.387 12.9844 665.32 13.5938 664.594 14.8125C663.867 16.0312 663.504 17.5664 663.504 19.418C663.504 21.5039 663.902 23.0977 664.699 24.1992C665.52 25.3008 666.551 25.8516 667.793 25.8516C668.824 25.8516 669.691 25.5 670.395 24.7969C671.098 24.0938 671.555 23.2852 671.766 22.3711L676.512 23.6367C676.113 25.4648 675.094 27.0938 673.453 28.5234C671.812 29.9297 669.891 30.6328 667.688 30.6328C664.734 30.6328 662.332 29.6133 660.48 27.5742C658.629 25.5352 657.703 22.8164 657.703 19.418Z" fill="#0173F9"/>
<path d="M687.129 15.5859C687.129 11.0156 688.336 7.37109 690.75 4.65234C693.188 1.93359 696.316 0.574219 700.137 0.574219C702.691 0.574219 704.895 1.27734 706.746 2.68359C708.598 4.06641 709.957 5.8125 710.824 7.92188L705.797 9.53906C705.141 8.36719 704.379 7.41797 703.512 6.69141C702.645 5.96484 701.508 5.60156 700.102 5.60156C697.969 5.60156 696.27 6.51562 695.004 8.34375C693.762 10.1484 693.141 12.5625 693.141 15.5859C693.141 18.6562 693.773 21.1055 695.039 22.9336C696.305 24.7383 697.992 25.6406 700.102 25.6406C701.508 25.6406 702.762 25.1836 703.863 24.2695C704.988 23.3555 705.785 22.2539 706.254 20.9648L711.527 22.6172C711.246 23.3203 710.906 24.0117 710.508 24.6914C710.109 25.3711 709.57 26.0859 708.891 26.8359C708.234 27.5625 707.496 28.207 706.676 28.7695C705.879 29.3086 704.906 29.7539 703.758 30.1055C702.633 30.457 701.426 30.6328 700.137 30.6328C696.387 30.6328 693.281 29.2969 690.82 26.625C688.359 23.9531 687.129 20.2734 687.129 15.5859Z" fill="#0173F9"/>
<path d="M719.016 19.418C719.016 21.7383 719.449 23.3906 720.316 24.375C721.184 25.3594 722.145 25.8516 723.199 25.8516C723.645 25.8516 724.078 25.7578 724.5 25.5703C724.945 25.3594 725.391 25.043 725.836 24.6211C726.281 24.1758 726.645 23.5078 726.926 22.6172C727.207 21.7031 727.348 20.6367 727.348 19.418C727.348 18.1758 727.207 17.1094 726.926 16.2188C726.668 15.3281 726.305 14.6602 725.836 14.2148C725.391 13.7695 724.945 13.4531 724.5 13.2656C724.078 13.0781 723.645 12.9844 723.199 12.9844C722.145 12.9844 721.184 13.4766 720.316 14.4609C719.449 15.4219 719.016 17.0742 719.016 19.418ZM713.25 19.418C713.25 17.9648 713.438 16.5938 713.812 15.3047C714.188 13.9922 714.75 12.7969 715.5 11.7188C716.273 10.6406 717.316 9.78516 718.629 9.15234C719.965 8.51953 721.488 8.20312 723.199 8.20312C724.91 8.20312 726.422 8.51953 727.734 9.15234C729.047 9.78516 730.078 10.6406 730.828 11.7188C731.602 12.7969 732.176 13.9922 732.551 15.3047C732.926 16.5938 733.113 17.9648 733.113 19.418C733.113 20.3555 733.031 21.293 732.867 22.2305C732.703 23.1445 732.387 24.1289 731.918 25.1836C731.473 26.2148 730.898 27.1289 730.195 27.9258C729.492 28.6992 728.531 29.3438 727.312 29.8594C726.117 30.375 724.746 30.6328 723.199 30.6328C721.676 30.6328 720.316 30.3867 719.121 29.8945C717.926 29.4023 716.965 28.7812 716.238 28.0312C715.512 27.2578 714.914 26.3672 714.445 25.3594C714 24.3281 713.684 23.332 713.496 22.3711C713.332 21.4102 713.25 20.4258 713.25 19.418Z" fill="#0173F9"/>
<path d="M736.348 30V8.83594H741.727V10.9102H741.762C742.91 9.10547 744.703 8.20312 747.141 8.20312C751.805 8.20312 754.137 10.9453 754.137 16.4297V30H748.547V17.0977C748.547 15.5977 748.336 14.543 747.914 13.9336C747.492 13.3008 746.824 12.9844 745.91 12.9844C744.738 12.9844 743.789 13.4648 743.062 14.4258C742.336 15.3633 741.973 16.5469 741.973 17.9766V30H736.348Z" fill="#0173F9"/>
<path d="M756.738 25.4297L760.676 23.1094C762.105 25.125 763.898 26.1328 766.055 26.1328C766.945 26.1328 767.637 25.9453 768.129 25.5703C768.645 25.1719 768.902 24.6914 768.902 24.1289C768.902 23.9414 768.867 23.7539 768.797 23.5664C768.75 23.3789 768.656 23.2148 768.516 23.0742C768.398 22.9102 768.27 22.7695 768.129 22.6523C767.988 22.5352 767.789 22.418 767.531 22.3008C767.297 22.1602 767.086 22.0547 766.898 21.9844C766.711 21.8906 766.453 21.7852 766.125 21.668C765.82 21.5508 765.562 21.4688 765.352 21.4219C765.141 21.3516 764.848 21.2578 764.473 21.1406C764.098 21.0234 763.816 20.9297 763.629 20.8594C761.848 20.2734 760.418 19.5117 759.34 18.5742C758.285 17.6367 757.758 16.2656 757.758 14.4609C757.758 12.5391 758.578 11.0156 760.219 9.89062C761.883 8.76562 763.84 8.20312 766.09 8.20312C767.848 8.20312 769.523 8.67188 771.117 9.60938C772.734 10.5234 773.941 11.7305 774.738 13.2305L771.047 15.4102C769.547 13.6055 767.918 12.7031 766.16 12.7031C765.316 12.7031 764.648 12.8789 764.156 13.2305C763.688 13.582 763.453 14.0273 763.453 14.5664C763.453 14.8242 763.5 15.0703 763.594 15.3047C763.688 15.5156 763.84 15.7148 764.051 15.9023C764.285 16.0898 764.496 16.2539 764.684 16.3945C764.895 16.5352 765.188 16.6758 765.562 16.8164C765.961 16.957 766.266 17.0742 766.477 17.168C766.711 17.2383 767.074 17.3555 767.566 17.5195C768.059 17.6602 768.41 17.7656 768.621 17.8359C772.652 19.1953 774.668 21.3164 774.668 24.1992C774.668 25.9805 773.941 27.5039 772.488 28.7695C771.035 30.0117 768.949 30.6328 766.23 30.6328C764.098 30.6328 762.188 30.1641 760.5 29.2266C758.836 28.2656 757.582 27 756.738 25.4297Z" fill="#0173F9"/>
<path d="M777.516 22.1953V8.83594H783.141V21.5977C783.141 24.4336 784.09 25.8516 785.988 25.8516C787.113 25.8516 787.992 25.3359 788.625 24.3047C789.281 23.25 789.609 22.0078 789.609 20.5781V8.83594H795.234V30H789.855V28.1016H789.75C789.352 28.8047 788.707 29.4023 787.816 29.8945C786.926 30.3867 785.906 30.6328 784.758 30.6328C784.148 30.6328 783.551 30.5742 782.965 30.457C782.402 30.3633 781.77 30.1406 781.066 29.7891C780.387 29.4141 779.789 28.9336 779.273 28.3477C778.781 27.7617 778.359 26.9414 778.008 25.8867C777.68 24.8086 777.516 23.5781 777.516 22.1953Z" fill="#0173F9"/>
<path d="M799.945 30V0.328125H805.57V30H799.945Z" fill="#0173F9"/>
<path d="M808.664 13.582V8.83594H811.688V2.82422H817.242V8.83594H821.637V13.582H817.242V22.8984C817.242 24.4453 817.922 25.2188 819.281 25.2188H821.672V30H818.578C813.984 30 811.688 27.7383 811.688 23.2148V13.582H808.664Z" fill="#0173F9"/>
<path d="M825.082 6.58594V0.820312H830.742V6.58594H825.082ZM825.152 30V8.83594H830.707V30H825.152Z" fill="#0173F9"/>
<path d="M835.312 30V8.83594H840.691V10.9102H840.727C841.875 9.10547 843.668 8.20312 846.105 8.20312C850.77 8.20312 853.102 10.9453 853.102 16.4297V30H847.512V17.0977C847.512 15.5977 847.301 14.543 846.879 13.9336C846.457 13.3008 845.789 12.9844 844.875 12.9844C843.703 12.9844 842.754 13.4648 842.027 14.4258C841.301 15.3633 840.938 16.5469 840.938 17.9766V30H835.312Z" fill="#0173F9"/>
<path d="M861.996 18.9961C861.996 20.9414 862.348 22.4297 863.051 23.4609C863.754 24.4688 864.68 24.9727 865.828 24.9727C866.977 24.9727 867.891 24.4688 868.57 23.4609C869.25 22.4531 869.59 20.9648 869.59 18.9961C869.59 17.0508 869.238 15.5625 868.535 14.5312C867.855 13.5 866.953 12.9844 865.828 12.9844C864.656 12.9844 863.719 13.5117 863.016 14.5664C862.336 15.5977 861.996 17.0742 861.996 18.9961ZM856.23 19.0312C856.23 15.7031 857.062 13.0664 858.727 11.1211C860.414 9.17578 862.535 8.20312 865.09 8.20312C866.191 8.20312 867.129 8.46094 867.902 8.97656C868.676 9.49219 869.238 10.0547 869.59 10.6641V8.83594H875.215V26.8008C875.215 30.7852 874.395 33.7148 872.754 35.5898C871.137 37.4883 868.676 38.4375 865.371 38.4375C861.691 38.4375 858.855 37.0312 856.863 34.2188L860.52 31.6172C861.809 33.1875 863.461 33.9727 865.477 33.9727C866.531 33.9727 867.445 33.5859 868.219 32.8125C869.016 32.0391 869.461 31.043 869.555 29.8242C869.625 28.9805 869.66 28.3008 869.66 27.7852C869.238 28.3477 868.594 28.8164 867.727 29.1914C866.883 29.5664 866.062 29.7539 865.266 29.7539C862.594 29.7539 860.414 28.7812 858.727 26.8359C857.062 24.8906 856.23 22.2891 856.23 19.0312Z" fill="#0173F9"/>
</svg>
