<svg width="466" height="330" viewBox="0 0 466 330" fill="none" xmlns="http://www.w3.org/2000/svg">
<path fill-rule="evenodd" clip-rule="evenodd" d="M0 5.7589H70.7644V195.777C70.7644 225.848 84.5124 243.761 95.3837 251.439C83.8745 261.676 48.7041 270.633 22.4864 248.879C7.02935 236.056 0 214.971 0 195.136V5.7589ZM442.249 163.602V143.633H463.832V73.5773H440.131C431.032 31.5173 393.607 0 348.848 0C297.286 0 255.489 41.8221 255.489 93.4096V257.012C270.178 259.078 287.679 256.755 302.569 244.401C318.023 231.576 325.053 210.493 325.053 190.658V184.631H360.395V114.575H325.053V93.4096H325.137C325.137 80.309 335.752 69.6886 348.848 69.6886C361.941 69.6886 372.599 80.309 372.599 93.4096V163.602C372.599 215.19 414.44 257.012 466 257.012V187.323C452.906 187.323 442.249 176.703 442.249 163.602ZM174.239 73.5773V176.392C174.239 182.229 169.399 186.961 163.427 186.961C157.454 186.961 152.614 182.229 152.614 176.392V73.5773H82.5938V194.498C82.5938 216.25 89.9669 243.761 123.52 252.718C157.108 261.685 176.593 243.122 176.593 243.122C174.818 255.351 163.307 264.309 144.763 266.228C130.733 267.679 112.79 263.03 103.84 259.191V323.255C126.646 329.984 150.769 332.158 174.376 327.574C217.218 319.257 244.257 283.43 244.257 235.764V73.5773H174.239Z" fill="#EA0B8C"/>
</svg>
