<svg xmlns="http://www.w3.org/2000/svg" width="82" height="31" viewBox="0 0 82 31">
    <path fill="#FFF" fill-rule="evenodd" d="M42.352 25.5c-.526-.047-.574-.616.43-2.086.287-.427 1.1-1.517 1.721-1.422.861.142.67 1.138-.382 2.418-.526.616-1.243 1.138-1.77 1.09M30.4 22.836c-.863-.494.966-3.904 2.287-3.163 1.321.742-1.677 3.51-2.287 3.163M2.5 25.941c-.533-.048-.436-.91.678-2.346.34-.431 1.21-1.39 1.84-1.39.872 0 .388 1.006-.726 2.347-.533.623-1.26 1.437-1.792 1.39m-2.5-.39c0 2.313 1.72 2.795 2.506 2.795 2.36 0 3.293-2.217 3.735-2.217.54 0 1.573 2.458 4.178 2.458 2.752 0 4.963-2.073 5.258-2.073.442 0 .098 1.109.688 2.362.934 2.024 3.686 2.072 5.897 1.542 2.9-.723 5.849-2.795 6.733-3.373.64.819 1.425 2.554 4.178 2.65 2.948.097 6.781-3.663 6.88-3.325.344 1.205 1.327 1.687 2.752 1.687 1.67 0 2.703-1.735 3.047-1.735.344 0 .89 3.382 3.621 3.38 2.31 0 4.13-3.009 4.032-2.313-.164 1.17.062 1.757.295 2.302.218.513 1.38 1.961 3.453.968 1.996-.956 3.038-6.159 6.33-10.978.295-.434.338-.203.24.28-.295 1.541-1.115 6.457-.721 8.53.344 1.83 2.26 2.457 3.44 1.108 1.621-1.88 3.636-5.639 4.62-5.012.442.289.343 2.12 1.473 3.132 1.18 1.06 7.126.916 8.6.579 1.524-.338.492-1.976-.687-2.025-1.081-.048-2.359.53-5.16.386-2.064-.096-1.77-1.88-2.261-3.807-.344-1.398-1.67-1.783-2.85-1.012-2.212 1.446-4.473 5.927-4.915 5.59-.491-.337.814-7.46 1.453-10.979.393-2.12-.64-2.94-1.819-2.698-2.359.481-8.136 13.87-8.676 13.822-.688-.048.022-2.202.661-3.551.737-1.543-.884-1.928-1.425-1.784-1.867.482-3.92 5.097-5.787 5.097-.884 0-1.951-1.497-1.853-3.907.098-2.602-1.474-3.662-2.949-3.662-1.72 0-2.9.915-4.325 2.65-1.376 1.639-4.767 4.964-7.617 4.916-1.966-.048-2.506-1.687-2.113-2.073.295-.578 4.226-2.265 4.226-5.349 0-4.578-8.354-2.65-6.978 4.771-2.064 1.783-6.094 3.855-8.256 3.663-1.475-.145-2.114-1.543-.05-6.747 1.475-3.71 2.556-6.506 3.883-9.783 3.096-.144 9.534-1.446 10.222-2.12.639-.627-.344-1.976-1.278-1.783-.786.096-4.963 1.06-7.863 1.349.786-1.831 1.67-3.904 2.752-6.361.836-1.832.295-2.362-.442-2.747-.737-.386-1.032-.241-2.36 2.698-1.08 2.41-1.965 4.579-2.8 6.555-3.047.192-8.355 1.06-9.78 1.542-.787.24-.098 2.313 1.425 2.024 1.18-.193 4.964-.916 7.372-1.109-1.917 4.723-3.047 7.952-3.98 9.88-1.082 2.264-4.817 4.433-6.439 4.433-1.18 0-2.359-1.253-2.408-2.795-.098-2.41-1.13-3.566-2.703-3.566-1.818 0-5.455 2.41-5.455 5.735"/>
</svg>
