<svg width="6038" height="334" viewBox="0 0 6038 334" fill="none" xmlns="http://www.w3.org/2000/svg">
<path fill-rule="evenodd" clip-rule="evenodd" d="M0 329.771L0 4.22949L108.101 4.22949C139.852 4.22949 168.308 10.3893 193.238 22.9633C218.203 35.5553 237.596 53.5772 251.19 76.9509C264.922 100.284 271.757 126.914 271.926 156.589L271.926 156.613V176.305C271.926 206.654 265.193 233.665 251.433 257.046C237.816 280.459 218.228 298.419 192.924 310.861C167.85 323.27 138.878 329.478 106.253 329.77L106.212 329.771H0ZM188.912 302.978C212.714 291.277 230.967 274.5 243.671 252.647C256.537 230.795 262.97 205.347 262.97 176.305V156.638C262.809 128.3 256.296 103.205 243.43 81.3528C230.725 59.5005 212.633 42.653 189.154 30.8104C165.674 18.9679 138.657 13.0466 108.101 13.0466L8.9562 13.0466L8.9562 320.953H106.171C137.692 320.671 165.272 314.68 188.912 302.978ZM180.907 252.318L180.919 252.306C198.697 234.962 208.18 209.796 208.18 175.459V157.484C208.18 124.074 199.221 99.3865 182.448 82.1689L182.424 82.1437L182.4 82.1183C165.845 64.853 141.915 55.551 109.27 55.2766H64.2282L64.2282 278.935H104C138.017 278.935 163.224 269.71 180.894 252.331L180.907 252.318ZM55.272 287.752L55.272 46.4595L109.307 46.4595C143.722 46.7415 170.257 56.6103 188.912 76.066C207.728 95.3806 217.136 122.52 217.136 157.484V175.459C217.136 211.41 207.165 239.113 187.224 258.568C167.443 278.024 139.702 287.752 104 287.752H55.272ZM540.654 187.448H388.439V278.935L565.259 278.935V329.771L324.211 329.771V4.22949L562.847 4.22949V55.2766L388.439 55.2766V136.613H540.654V187.448ZM379.483 145.43V46.4595L553.891 46.4595V13.0466L333.167 13.0466V320.953L556.303 320.953V287.752L379.483 287.752V178.631H531.698V145.43H379.483ZM592.959 240.528C592.645 237.642 592.487 234.703 592.487 231.711H639.044C639.044 250.321 646.844 265.054 662.443 275.909C678.204 286.624 699.191 291.981 725.404 291.981C749.849 291.981 768.584 287.611 781.61 278.87C794.637 270.129 801.15 258.216 801.15 243.131C801.15 228.046 795.119 216.415 783.058 208.238C770.996 199.92 749.125 191.743 717.444 183.706C677.721 173.697 648.774 161.431 630.601 146.91C612.59 132.248 603.584 114.202 603.584 92.7725C603.584 68.5234 614.6 48.5038 636.632 32.7137C658.825 16.7826 687.612 8.81708 722.992 8.81708C747.115 8.81708 768.584 12.9056 787.4 21.0826C806.376 29.2596 821.011 40.5383 831.303 54.9185C839.931 66.7868 844.998 79.5674 846.505 93.2603C846.824 96.1584 846.983 99.0974 846.983 102.077H800.426C800.426 83.4676 793.672 68.8758 780.163 58.3021C766.654 47.5874 747.597 42.2301 722.992 42.2301C700.156 42.2301 682.305 46.671 669.439 55.5529C656.734 64.2939 650.382 76.4889 650.382 92.138C650.382 104.686 656.413 115.33 668.474 124.071C680.696 132.671 701.362 140.566 730.47 147.756C759.739 154.946 782.575 162.911 798.979 171.652C815.543 180.252 827.765 190.333 835.645 201.893C843.686 213.454 847.707 227.059 847.707 242.708C847.707 267.662 836.61 287.681 814.417 302.767C792.224 317.711 762.553 325.183 725.404 325.183C701.281 325.183 678.767 321.165 657.86 313.129C636.954 304.952 620.791 293.814 609.373 279.716C599.997 267.974 594.526 254.911 592.959 240.528ZM843.059 196.946C852.222 210.135 856.663 225.512 856.663 242.708C856.663 270.772 843.937 293.416 819.506 310.022L819.49 310.033L819.474 310.044C795.321 326.308 763.689 334 725.404 334C700.251 334 676.623 329.806 654.603 321.342L654.578 321.333L654.553 321.323C632.526 312.707 614.96 300.757 602.37 285.213L602.351 285.189L602.332 285.165C589.836 269.516 583.531 251.596 583.531 231.711V222.894H648.001V231.711C648.001 247.407 654.346 259.461 667.574 268.682C681.375 278.049 700.38 283.164 725.404 283.164C748.969 283.164 765.639 278.917 776.566 271.584C787.229 264.429 792.194 255.201 792.194 243.131C792.194 230.787 787.482 221.942 777.978 215.499L777.948 215.479L777.919 215.459C767.292 208.13 746.814 200.262 715.221 192.248C675.052 182.125 644.622 169.47 624.957 153.756L624.925 153.73L624.894 153.705C604.998 137.509 594.628 117.044 594.628 92.7725C594.628 65.3736 607.299 42.8304 631.361 25.5854C655.475 8.27712 686.265 0 722.992 0C748.141 0 770.871 4.26406 791.002 13.0102C811.217 21.7227 827.231 33.9339 838.604 49.8109C850.091 65.6232 855.939 83.1169 855.939 102.077V110.894H791.47V102.077C791.47 85.8624 785.738 73.9304 774.589 65.2036L774.566 65.1859L774.544 65.168C763.176 56.1512 746.391 51.0471 722.992 51.0471C701.199 51.0471 685.398 55.3042 674.581 62.7719L674.57 62.78C664.335 69.8219 659.338 79.2807 659.338 92.138C659.338 101.353 663.545 109.533 673.733 116.933C684.533 124.513 703.808 132.079 732.646 139.203C762.228 146.47 785.861 154.644 803.199 163.875C820.63 172.932 834.134 183.868 843.059 196.946ZM965.939 329.771H901.711V4.22949L965.939 4.22949V329.771ZM1310.17 283.606L1308.26 286.002C1295.14 302.479 1276.98 314.565 1254.28 322.496L1254.26 322.501L1254.25 322.506C1231.86 330.239 1206.05 334 1176.98 334C1147.09 334 1120.19 327.88 1096.53 315.403L1096.51 315.393L1096.49 315.382C1072.8 302.74 1054.35 284.757 1041.3 261.574L1041.29 261.552L1041.27 261.53C1028.41 238.365 1021.94 211.738 1021.6 181.901L1021.6 181.852V154.946C1021.6 107.043 1034.33 68.6478 1060.97 41.0237L1060.99 41.0029C1087.84 13.3336 1125.17 0 1171.68 0C1209.68 0 1241.25 8.55399 1265.58 26.5044C1290.01 44.3869 1304.75 69.7932 1310.06 101.93L1311.75 112.163H1247.63L1246.13 105.157C1242.14 86.3925 1233.99 73.199 1222.28 64.5691C1210.46 55.8637 1193.97 51.0471 1171.92 51.0471C1142.89 51.0471 1122.15 59.9155 1108.15 76.5956C1094.04 93.4682 1086.23 118.795 1086.07 153.912V153.927V179.054C1086.07 212.068 1094.65 237.305 1110.89 255.74C1126.98 273.871 1148.75 283.164 1177.22 283.164C1194.03 283.164 1208.43 281.524 1220.53 278.381C1230.86 275.697 1239.34 271.477 1246.19 265.842V209.442H1164.89V158.817L1310.17 158.817V283.606ZM1255.14 200.624V269.777C1246.62 277.813 1235.84 283.522 1222.82 286.906C1209.79 290.29 1194.59 291.981 1177.22 291.981C1146.51 291.981 1122.14 281.831 1104.13 261.529C1086.12 241.087 1077.11 213.595 1077.11 179.054V153.889C1077.28 117.656 1085.32 90.0233 1101.24 70.9906C1117.32 51.8169 1140.88 42.2301 1171.92 42.2301C1218.56 42.2301 1246.22 62.6021 1254.9 103.346H1301.22C1300.72 100.339 1300.14 97.3995 1299.47 94.5291C1293.42 68.6065 1280.33 48.2833 1260.21 33.5596C1237.85 17.0646 1208.34 8.81708 1171.68 8.81708C1126.97 8.81708 1092.23 21.576 1067.47 47.094C1042.86 72.6119 1030.56 108.563 1030.56 154.946V181.803C1030.88 210.423 1037.07 235.588 1049.13 257.3C1061.35 279.011 1078.56 295.788 1100.76 307.631C1122.95 319.332 1148.36 325.183 1176.98 325.183C1205.29 325.183 1230.05 321.517 1251.28 314.186C1272.67 306.714 1289.32 295.506 1301.22 280.562V167.634L1173.85 167.634V200.624H1255.14ZM1657.54 329.771H1597.49L1434.16 110.603V329.771H1369.69V4.22949L1429.75 4.22949L1593.55 224.417V4.22949L1657.54 4.22949V329.771ZM1602.51 251.378L1425.21 13.0466L1378.65 13.0466V320.953H1425.21V83.6791L1602.03 320.953H1648.58V13.0466L1602.51 13.0466V251.378ZM1725.23 277.288L1725.29 277.233C1732.2 270.545 1741.75 267.938 1752.31 267.938C1762.84 267.938 1772.37 270.53 1779.28 277.178C1785.91 283.408 1789.25 291.37 1789.25 300.44C1789.25 309.352 1785.82 317.118 1779.18 323.16C1772.26 329.61 1762.78 332.097 1752.31 332.097C1741.82 332.097 1732.31 329.597 1725.39 323.11L1725.34 323.057L1725.28 323.003C1718.99 316.899 1715.86 309.176 1715.86 300.44C1715.86 291.54 1718.91 283.626 1725.18 277.343L1725.23 277.288ZM1773.06 316.724C1777.88 312.354 1780.3 306.926 1780.3 300.44C1780.3 293.673 1777.88 288.034 1773.06 283.522C1768.39 279.011 1761.48 276.755 1752.31 276.755C1743.15 276.755 1736.23 279.011 1731.57 283.522C1727.06 288.034 1724.81 293.673 1724.81 300.44C1724.81 306.926 1727.06 312.354 1731.57 316.724C1736.23 321.094 1743.15 323.28 1752.31 323.28C1761.48 323.28 1768.39 321.094 1773.06 316.724ZM2252.21 214.435L2250.89 224.4C2246.28 258.924 2231.53 286.318 2206.26 305.704L2206.26 305.706C2181.26 324.865 2148.49 334 2108.85 334C2065.27 334 2029.49 320.211 2002.48 292.123L2002.46 292.102C1975.64 264.04 1962.63 226.809 1962.63 181.38V151.774C1962.63 121.965 1968.67 95.3503 1981.03 72.1788L1981.04 72.1565L1981.05 72.1344C1993.59 48.9528 2011.38 31.0561 2034.32 18.6496C2057.23 6.12564 2083.52 0 2112.95 0C2151.74 0 2183.85 9.54526 2208.37 29.4925C2232.93 49.3331 2246.98 76.7917 2250.91 111.028L2252.03 120.834H2187.82L2186.61 113.421C2182.78 90.0866 2174.68 74.6605 2163.45 65.52L2163.43 65.5035L2163.41 65.4868C2152.2 56.2507 2135.78 51.0471 2112.95 51.0471C2085.53 51.0471 2064.93 59.8184 2050.01 76.76C2035.16 93.7967 2027.1 118.732 2027.1 152.831V182.649C2027.1 214.721 2034.74 239.156 2049.04 256.892C2063.05 274.256 2082.59 283.164 2108.85 283.164C2133.56 283.164 2151.04 278.264 2162.55 269.721C2173.84 261.322 2182.32 246.006 2186.63 221.735L2187.92 214.435H2252.21ZM2167.95 276.755C2154.28 286.906 2134.58 291.981 2108.85 291.981C2080.22 291.981 2057.95 282.113 2042.03 262.375C2026.11 242.637 2018.15 216.062 2018.15 182.649V152.831C2018.15 117.444 2026.51 90.1643 2043.23 70.9906C2060.12 51.8169 2083.36 42.2301 2112.95 42.2301C2137.07 42.2301 2155.81 47.7284 2169.16 58.7251C2182.66 69.7217 2191.43 87.4856 2195.45 112.017H2242.01C2241.66 109.017 2241.24 106.078 2240.73 103.2C2235.79 75.1026 2223.11 52.8057 2202.69 36.3088C2180.17 17.981 2150.26 8.81708 2112.95 8.81708C2084.81 8.81708 2060.04 14.6679 2038.65 26.3695C2017.26 37.9301 2000.7 54.5661 1988.96 76.2774C1977.38 97.9888 1971.59 123.154 1971.59 151.774V181.38C1971.59 225.085 1984.05 259.978 2008.98 286.06C2034.07 312.142 2067.36 325.183 2108.85 325.183C2147.12 325.183 2177.76 316.371 2200.76 298.749C2221.78 282.622 2235.05 260.396 2240.57 232.069C2241.13 229.193 2241.61 226.254 2242.01 223.252H2195.45C2190.95 248.629 2181.78 266.463 2167.95 276.755ZM2510.49 320.953L2434.26 196.395H2351.77V320.953H2305.21V13.0466L2421.48 13.0466C2461.04 13.0466 2491.44 20.9416 2512.66 36.7317C2534.05 52.5218 2544.75 75.502 2544.75 105.672C2544.75 124.846 2538.8 141.553 2526.9 155.792C2516.8 168.044 2503.24 177.634 2486.23 184.563C2483.48 185.687 2480.63 186.741 2477.69 187.725L2560.19 318.416V320.953L2510.49 320.953ZM2491.02 192.146L2569.14 315.899V329.771L2505.43 329.771L2429.21 205.212H2360.72V329.771H2296.25V4.22949L2421.48 4.22949C2462.08 4.22949 2494.68 12.3061 2518.05 29.6891C2542.04 47.4035 2553.7 73.1966 2553.7 105.672C2553.7 126.794 2547.09 145.497 2533.83 161.377C2522.93 174.586 2508.56 184.789 2491.02 192.146ZM2472.18 140.592L2472.2 140.576C2483.61 131.865 2489.23 120.514 2489.23 105.672C2489.23 88.8384 2483.61 77.0037 2473.09 68.8106L2473.07 68.794L2473.05 68.7773C2462.36 60.3467 2446.01 55.4149 2422.66 55.2766L2360.72 55.2766V154.376H2422.93C2444.6 154.376 2460.69 149.466 2472.16 140.607L2472.18 140.592ZM2351.77 163.193V46.4595L2422.69 46.4595C2447.13 46.6005 2465.79 51.7464 2478.65 61.8972C2491.68 72.048 2498.19 86.6397 2498.19 105.672C2498.19 123.154 2491.36 137.112 2477.69 147.544C2464.18 157.977 2445.92 163.193 2422.93 163.193H2351.77ZM2817.37 187.448L2665.15 187.448V278.935H2841.97V329.771H2600.92V4.22949L2839.56 4.22949V55.2766L2665.15 55.2766V136.613L2817.37 136.613V187.448ZM2656.2 145.43V46.4595L2830.6 46.4595V13.0466L2609.88 13.0466V320.953H2833.02V287.752H2656.2V178.631H2808.41V145.43H2656.2ZM2990.78 13.0466L3031.31 13.0466L3165.67 320.953H3118.15L3084.62 240.593H2937.47L2904.42 320.953H2856.66L2990.78 13.0466ZM2943.5 249.41L2910.46 329.771H2843.07L2984.87 4.22949L3037.21 4.22949L3179.26 329.771H3112.14L3078.61 249.41H2943.5ZM3433.22 55.2766L3320.33 55.2766V329.771H3256.34V55.2766H3143.69V4.22949L3433.22 4.22949V55.2766ZM3265.3 46.4595V320.953H3311.37V46.4595L3424.27 46.4595V13.0466L3152.64 13.0466V46.4595L3265.3 46.4595ZM3683.86 187.448H3531.64V278.935L3708.46 278.935V329.771L3467.41 329.771V4.22949L3706.05 4.22949V55.2766L3531.64 55.2766V136.613H3683.86V187.448ZM3522.69 145.43V46.4595L3697.09 46.4595V13.0466L3476.37 13.0466V320.953L3699.51 320.953V287.752L3522.69 287.752V178.631H3674.9V145.43H3522.69ZM3751.55 277.288L3751.61 277.233C3758.52 270.545 3768.07 267.938 3778.63 267.938C3789.16 267.938 3798.69 270.53 3805.6 277.178C3812.23 283.408 3815.57 291.37 3815.57 300.44C3815.57 309.357 3812.13 317.127 3805.49 323.17C3798.57 329.612 3789.09 332.097 3778.63 332.097C3768.14 332.097 3758.63 329.597 3751.71 323.11L3751.65 323.057L3751.6 323.003C3745.31 316.899 3742.17 309.176 3742.17 300.44C3742.17 291.54 3745.22 283.626 3751.5 277.343L3751.55 277.288ZM3799.38 316.724C3804.2 312.354 3806.61 306.926 3806.61 300.44C3806.61 293.673 3804.2 288.034 3799.38 283.522C3794.71 279.011 3787.8 276.755 3778.63 276.755C3769.46 276.755 3762.55 279.011 3757.88 283.522C3753.38 288.034 3751.13 293.673 3751.13 300.44C3751.13 306.926 3753.38 312.354 3757.88 316.724C3762.55 321.094 3769.46 323.28 3778.63 323.28C3787.8 323.28 3794.71 321.094 3799.38 316.724ZM4068.62 329.771H4004.39V4.22949L4068.62 4.22949V329.771ZM4423.46 329.771H4363.41L4200.09 110.603V329.771H4135.62V4.22949L4195.67 4.22949L4359.48 224.417V4.22949L4423.46 4.22949V329.771ZM4368.43 251.378L4191.13 13.0466L4144.57 13.0466V320.953H4191.13V83.6791L4367.95 320.953H4414.51V13.0466L4368.43 13.0466V251.378ZM4729.31 93.2603C4729.63 96.1584 4729.79 99.0974 4729.79 102.077H4683.24C4683.24 83.4676 4676.48 68.8758 4662.97 58.3021C4649.46 47.5874 4630.41 42.2301 4605.8 42.2301C4582.97 42.2301 4565.11 46.671 4552.25 55.5529C4539.54 64.2939 4533.19 76.4889 4533.19 92.138C4533.19 104.686 4539.22 115.33 4551.28 124.071C4563.51 132.671 4584.17 140.566 4613.28 147.756C4642.55 154.946 4665.39 162.911 4681.79 171.652C4698.35 180.252 4710.58 190.333 4718.46 201.893C4726.5 213.454 4730.52 227.059 4730.52 242.708C4730.52 267.662 4719.42 287.681 4697.23 302.767C4675.03 317.711 4645.36 325.183 4608.21 325.183C4584.09 325.183 4561.58 321.165 4540.67 313.129C4519.76 304.952 4503.6 293.814 4492.18 279.716C4482.81 267.974 4477.34 254.911 4475.77 240.528C4475.45 237.642 4475.3 234.703 4475.3 231.711H4521.85C4521.85 250.321 4529.65 265.054 4545.25 275.909C4561.01 286.624 4582 291.981 4608.21 291.981C4632.66 291.981 4651.39 287.611 4664.42 278.87C4677.45 270.129 4683.96 258.216 4683.96 243.131C4683.96 228.046 4677.93 216.415 4665.87 208.238C4653.81 199.92 4631.93 191.743 4600.25 183.706C4560.53 173.697 4531.58 161.431 4513.41 146.91C4495.4 132.248 4486.39 114.202 4486.39 92.7725C4486.39 68.5234 4497.41 48.5038 4519.44 32.7137C4541.63 16.7826 4570.42 8.81708 4605.8 8.81708C4629.92 8.81708 4651.39 12.9056 4670.21 21.0826C4689.19 29.2596 4703.82 40.5383 4714.11 54.9185C4722.74 66.7868 4727.81 79.5674 4729.31 93.2603ZM4721.4 49.791C4732.9 65.6086 4738.75 83.1089 4738.75 102.077V110.894L4674.28 110.894V102.077C4674.28 85.8624 4668.55 73.9304 4657.4 65.2036L4657.38 65.1859L4657.35 65.168C4645.98 56.1512 4629.2 51.0471 4605.8 51.0471C4584.01 51.0471 4568.21 55.3042 4557.39 62.7719L4557.38 62.78C4547.14 69.8219 4542.15 79.2807 4542.15 92.138C4542.15 101.353 4546.35 109.533 4556.54 116.933C4567.34 124.513 4586.61 132.078 4615.45 139.201C4645.03 146.468 4668.66 154.641 4686 163.873C4703.43 172.927 4716.94 183.861 4725.86 196.935C4735.03 210.126 4739.47 225.507 4739.47 242.708C4739.47 270.772 4726.75 293.416 4702.32 310.022L4702.3 310.033L4702.28 310.044C4678.13 326.308 4646.5 334 4608.21 334C4583.06 334 4559.43 329.806 4537.41 321.342L4537.39 321.333L4537.36 321.323C4515.34 312.707 4497.77 300.757 4485.18 285.213L4485.16 285.189L4485.14 285.165C4472.65 269.516 4466.34 251.596 4466.34 231.711V222.894H4530.81V231.711C4530.81 247.409 4537.16 259.466 4550.39 268.687C4564.19 278.051 4583.19 283.164 4608.21 283.164C4631.78 283.164 4648.45 278.917 4659.38 271.584C4670.04 264.429 4675 255.201 4675 243.131C4675 230.787 4670.29 221.942 4660.79 215.499L4660.76 215.479L4660.73 215.459C4650.1 208.13 4629.63 200.263 4598.03 192.248C4557.86 182.125 4527.43 169.47 4507.77 153.756L4507.74 153.73L4507.7 153.705C4487.81 137.509 4477.44 117.044 4477.44 92.7725C4477.44 65.3736 4490.11 42.8304 4514.17 25.5854C4538.29 8.27709 4569.08 0 4605.8 0C4630.95 0 4653.68 4.26406 4673.81 13.0102C4694.02 21.719 4710.03 33.9237 4721.4 49.791ZM4845.37 329.771H4781.14V4.22949L4919.64 4.22949C4959.34 4.22949 4991.65 13.1095 5015.46 31.9648C5039.52 50.8913 5051.62 76.2265 5051.62 107.153C5051.62 139.388 5039.93 165.185 5016.05 183.291L5016.04 183.294C4992.65 201.003 4959.94 209.23 4919.16 209.23L4845.37 209.23V329.771ZM4836.42 320.953H4790.1V13.0466L4919.64 13.0466C4958.08 13.0466 4988.15 21.6465 5009.86 38.8465C5031.73 56.0464 5042.67 78.8151 5042.67 107.153C5042.67 137.041 5031.97 160.092 5010.58 176.305C4989.35 192.377 4958.88 200.413 4919.16 200.413L4836.42 200.413V320.953ZM5160.42 329.771H5096.19V4.22949L5160.42 4.22949V329.771ZM5441.42 320.953L5365.19 196.395H5282.69V320.953H5236.13V13.0466L5352.4 13.0466C5391.96 13.0466 5422.36 20.9416 5443.59 36.7317C5464.98 52.5218 5475.67 75.502 5475.67 105.672C5475.67 124.846 5469.72 141.553 5457.82 155.792C5447.72 168.044 5434.16 177.634 5417.16 184.563C5414.4 185.687 5411.55 186.741 5408.61 187.725L5491.11 318.416V320.953H5441.42ZM5421.94 192.146L5500.07 315.899V329.771H5436.36L5360.13 205.212H5291.64V329.771H5227.18V4.22949L5352.4 4.22949C5392.99 4.22949 5425.59 12.3025 5448.96 29.6777C5472.96 47.3924 5484.63 73.1896 5484.63 105.672C5484.63 126.794 5478.02 145.497 5464.75 161.377C5453.85 174.586 5439.48 184.789 5421.94 192.146ZM5403.1 140.592L5403.12 140.576C5414.54 131.865 5420.16 120.514 5420.16 105.672C5420.16 88.8384 5414.53 77.0037 5404.02 68.8106L5403.99 68.794L5403.97 68.7773C5393.29 60.3467 5376.93 55.4149 5353.58 55.2766L5291.64 55.2766V154.376H5353.85C5375.52 154.376 5391.61 149.466 5403.08 140.607L5403.1 140.592ZM5282.69 163.193V46.4595L5353.61 46.4595C5378.05 46.6005 5396.71 51.7464 5409.57 61.8972C5422.6 72.048 5429.11 86.6397 5429.11 105.672C5429.11 123.154 5422.28 137.112 5408.61 147.544C5395.1 157.977 5376.85 163.193 5353.85 163.193H5282.69ZM5748.29 187.448H5596.07V278.935L5772.89 278.935V329.771L5531.85 329.771V4.22949L5770.48 4.22949V55.2766L5596.07 55.2766V136.613H5748.29V187.448ZM5587.12 145.43V46.4595L5761.53 46.4595V13.0466L5540.8 13.0466V320.953L5763.94 320.953V287.752L5587.12 287.752V178.631H5739.33V145.43H5587.12ZM5815.98 277.288L5816.04 277.233C5822.95 270.545 5832.5 267.938 5843.06 267.938C5853.59 267.938 5863.11 270.527 5870.02 277.167C5876.66 283.399 5880 291.364 5880 300.44C5880 309.357 5876.57 317.127 5869.92 323.17C5863 329.612 5853.52 332.097 5843.06 332.097C5832.57 332.097 5823.06 329.597 5816.14 323.11L5816.08 323.057L5816.03 323.003C5809.74 316.899 5806.6 309.176 5806.6 300.44C5806.6 291.54 5809.66 283.626 5815.93 277.343L5815.98 277.288ZM5863.81 316.724C5868.63 312.354 5871.04 306.926 5871.04 300.44C5871.04 293.673 5868.63 288.034 5863.81 283.522C5859.14 279.011 5852.23 276.755 5843.06 276.755C5833.89 276.755 5826.98 279.011 5822.32 283.522C5817.81 288.034 5815.56 293.673 5815.56 300.44C5815.56 306.926 5817.81 312.354 5822.32 316.724C5826.98 321.094 5833.89 323.28 5843.06 323.28C5852.23 323.28 5859.14 321.094 5863.81 316.724ZM3070.87 207.18L3011.04 63.166L2951.46 207.18H3070.87ZM2964.78 198.363L3011.06 86.4996L3057.53 198.363H2964.78ZM4845.37 158.394L4919.64 158.394C4943.32 158.394 4960.02 153.522 4971.04 145.05C4981.69 136.72 4987.39 124.681 4987.39 107.576C4987.39 91.6124 4981.79 79.4966 4970.78 70.3168C4959.63 61.0226 4943.79 55.6863 4922.21 55.2766H4845.37V158.394ZM4836.42 167.211V46.4595H4922.29C4945.29 46.8825 4963.38 52.5923 4976.57 63.589C4989.76 74.5857 4996.35 89.2479 4996.35 107.576C4996.35 126.89 4989.76 141.694 4976.57 151.985C4963.38 162.136 4944.41 167.211 4919.64 167.211L4836.42 167.211ZM956.983 320.953V13.0466L910.667 13.0466V320.953H956.983ZM4013.35 320.953V13.0466L4059.66 13.0466V320.953H4013.35ZM5105.14 320.953V13.0466L5151.46 13.0466V320.953H5105.14Z" fill="#171717"/>
</svg>
