<svg width="1361" height="78" viewBox="0 0 1361 78" fill="none" xmlns="http://www.w3.org/2000/svg">
<path fill-rule="evenodd" clip-rule="evenodd" d="M0 77.0123L0 0.987725L25.0213 0.987725C32.3704 0.987725 38.957 2.42624 44.7272 5.36268C50.5058 8.30332 54.9945 12.5121 58.1411 17.9706C61.3196 23.4196 62.9016 29.6387 62.9406 36.5686L62.9406 36.5743V41.173C62.9406 48.2606 61.3822 54.5684 58.1974 60.0287C55.0456 65.4964 50.5115 69.6906 44.6547 72.5963C38.8511 75.4942 32.1451 76.944 24.5935 77.0122L24.5841 77.0123H0ZM43.7262 70.7554C49.2352 68.0227 53.4601 64.1047 56.4008 59.0014C59.3787 53.8982 60.8676 47.9554 60.8676 41.173V36.5801C60.8304 29.9623 59.3228 24.1018 56.3449 18.9986C53.4043 13.8953 49.2166 9.96088 43.782 7.19525C38.3474 4.42962 32.0938 3.0468 25.0213 3.0468L2.07302 3.0468L2.07302 74.9532H24.5747C31.8705 74.8873 38.2543 73.4881 43.7262 70.7554ZM41.8731 58.9246L41.8761 58.9217C45.9908 54.8713 48.1859 48.9942 48.1859 40.9754V36.7776C48.1859 28.9753 46.1123 23.21 42.23 19.1891L42.2243 19.1833L42.2187 19.1773C38.3869 15.1453 32.8479 12.973 25.2918 12.9089L14.8664 12.9089L14.8664 65.1405H24.0721C31.9458 65.1405 37.7803 62.9862 41.8701 58.9276L41.8731 58.9246ZM12.7934 67.1996L12.7934 10.8498L25.3005 10.8498C33.2664 10.9157 39.4082 13.2204 43.7262 17.7639C48.0813 22.2745 50.2589 28.6124 50.2589 36.7776V40.9754C50.2589 49.3711 47.951 55.8407 43.3353 60.3842C38.7568 64.9278 32.3358 67.1996 24.0721 67.1996H12.7934ZM125.141 43.7753H89.9091V65.1405L130.836 65.1405V77.0123L75.0427 77.0123V0.987725L130.278 0.987725V12.9089L89.9091 12.9089V31.9035L125.141 31.9035V43.7753ZM87.8361 33.9626V10.8498L128.205 10.8498V3.0468L77.1157 3.0468V74.9532L128.763 74.9532V67.1996L87.8361 67.1996V41.7162H123.068V33.9626H87.8361ZM137.248 56.1713C137.175 55.4973 137.139 54.811 137.139 54.1122H147.915C147.915 58.4582 149.72 61.8988 153.331 64.4339C156.979 66.9362 161.836 68.1873 167.904 68.1873C173.562 68.1873 177.898 67.1666 180.914 65.1253C183.929 63.084 185.436 60.3019 185.436 56.779C185.436 53.2562 184.04 50.5399 181.249 48.6303C178.457 46.6878 173.394 44.7782 166.061 42.9015C156.867 40.5639 150.167 37.6995 145.961 34.3083C141.792 30.8842 139.707 26.6699 139.707 21.6654C139.707 16.0025 142.257 11.3272 147.357 7.63973C152.493 3.9193 159.156 2.05908 167.346 2.05908C172.929 2.05908 177.898 3.01388 182.254 4.92348C186.646 6.83308 190.033 9.46702 192.416 12.8253C194.412 15.5969 195.585 18.5816 195.934 21.7793C196.008 22.4562 196.045 23.1425 196.045 23.8384H185.269C185.269 19.4924 183.705 16.0848 180.579 13.6155C177.452 11.1132 173.041 9.86211 167.346 9.86211C162.06 9.86211 157.928 10.8992 154.95 12.9734C152.009 15.0147 150.539 17.8627 150.539 21.5173C150.539 24.4475 151.935 26.9333 154.727 28.9746C157.556 30.983 162.339 32.8267 169.076 34.5058C175.851 36.185 181.137 38.0452 184.934 40.0865C188.768 42.0949 191.597 44.449 193.421 47.1487C195.282 49.8485 196.212 53.0257 196.212 56.6803C196.212 62.5079 193.644 67.1831 188.507 70.706C183.37 74.1959 176.503 75.9409 167.904 75.9409C162.32 75.9409 157.109 75.0026 152.27 73.1259C147.431 71.2163 143.69 68.6153 141.047 65.3229C138.877 62.5807 137.61 59.5301 137.248 56.1713ZM195.137 45.9933C197.257 49.0733 198.285 52.6644 198.285 56.6803C198.285 63.2341 195.34 68.5222 189.685 72.4004L189.681 72.403L189.677 72.4055C184.087 76.2036 176.766 78 167.904 78C162.082 78 156.613 77.0206 151.516 75.044L151.51 75.0417L151.505 75.0395C146.406 73.0275 142.34 70.2367 139.426 66.6065L139.422 66.601L139.417 66.5954C136.525 62.9407 135.066 58.7559 135.066 54.1122V52.0531H149.988V54.1122C149.988 57.7776 151.457 60.5928 154.518 62.7461C157.713 64.9336 162.112 66.1282 167.904 66.1282C173.358 66.1282 177.217 65.1363 179.746 63.4239C182.214 61.7529 183.363 59.5978 183.363 56.779C183.363 53.8963 182.273 51.8308 180.073 50.3262L180.066 50.3215L180.059 50.3168C177.599 48.6052 172.86 46.7678 165.547 44.8962C156.249 42.5322 149.206 39.5768 144.654 35.907L144.647 35.9011L144.64 35.8952C140.034 32.1128 137.634 27.3336 137.634 21.6654C137.634 15.2669 140.567 10.0023 146.136 5.97504C151.718 1.93298 158.845 0 167.346 0C173.167 0 178.428 0.995799 183.087 3.0383C187.766 5.07296 191.473 7.92468 194.105 11.6325C196.764 15.3252 198.118 19.4105 198.118 23.8384V25.8975H183.196V23.8384C183.196 20.0517 181.869 17.2652 179.288 15.2272L179.283 15.2231L179.278 15.2189C176.647 13.1131 172.761 11.9212 167.346 11.9212C162.301 11.9212 158.644 12.9154 156.14 14.6593L156.138 14.6612C153.769 16.3057 152.612 18.5147 152.612 21.5173C152.612 23.6693 153.586 25.5797 155.944 27.3078C158.444 29.078 162.905 30.8449 169.58 32.5085C176.427 34.2056 181.897 36.1144 185.91 38.2703C189.945 40.3852 193.071 42.9393 195.137 45.9933ZM223.579 77.0123H208.712V0.987725L223.579 0.987725V77.0123ZM303.256 66.2313L302.814 66.7908C299.777 70.6388 295.573 73.4613 290.318 75.3134L290.315 75.3146L290.311 75.3158C285.128 77.1216 279.155 78 272.428 78C265.508 78 259.282 76.5707 253.805 73.657L253.8 73.6546L253.796 73.6521C248.312 70.6997 244.042 66.5001 241.022 61.086L241.019 61.081L241.016 61.0759C238.037 55.6661 236.54 49.4478 236.463 42.4798L236.463 42.4684V36.185C236.463 24.9982 239.41 16.0315 245.575 9.58038L245.58 9.57553C251.795 3.11383 260.434 0 271.199 0C279.995 0 287.304 1.99764 292.934 6.18965C298.588 10.3658 302 16.299 303.229 23.8041L303.62 26.1938H288.779L288.434 24.5576C287.508 20.1755 285.623 17.0944 282.911 15.079C280.175 13.046 276.36 11.9212 271.255 11.9212C264.535 11.9212 259.735 13.9923 256.496 17.8876C253.229 21.8279 251.421 27.7426 251.385 35.9435C251.385 35.9447 251.385 35.9459 251.385 35.947L251.385 41.815C251.385 49.5248 253.371 55.4185 257.129 59.7236C260.853 63.9578 265.892 66.1282 272.483 66.1282C276.374 66.1282 279.706 65.7452 282.507 65.0111C284.899 64.3844 286.862 63.3987 288.445 62.0829V48.9115H269.629V37.0891H303.256V66.2313ZM290.518 46.8524V63.0017C288.545 64.8784 286.051 66.2118 283.036 67.002C280.021 67.7922 276.504 68.1873 272.483 68.1873C265.374 68.1873 259.734 65.8167 255.565 61.0757C251.396 56.3016 249.312 49.8814 249.312 41.815V35.938C249.349 27.4765 251.21 21.0234 254.895 16.5786C258.618 12.101 264.071 9.86211 271.255 9.86211C282.05 9.86211 288.452 14.6197 290.462 24.1347H301.183C301.068 23.4323 300.933 22.746 300.778 22.0757C299.378 16.0219 296.349 11.2757 291.691 7.83727C286.517 3.98514 279.686 2.05908 271.199 2.05908C260.851 2.05908 252.811 5.03872 247.078 10.998C241.383 16.9573 238.536 25.3529 238.536 36.185V42.457C238.61 49.1406 240.043 55.0176 242.835 60.0879C245.664 65.1583 249.647 69.0762 254.784 71.8419C259.92 74.5746 265.802 75.9409 272.428 75.9409C278.979 75.9409 284.711 75.0849 289.625 73.3728C294.576 71.6278 298.428 69.0104 301.183 65.5204V39.1482H271.702V46.8524H290.518ZM383.659 77.0123H369.759L331.955 25.8295V77.0123H317.033V0.987725L330.933 0.987725L368.848 52.4087V0.987725L383.659 0.987725V77.0123ZM370.921 58.7051L329.882 3.0468L319.106 3.0468V74.9532H329.882V19.5418L370.809 74.9532H381.586V3.0468L370.921 3.0468V58.7051ZM399.327 64.7558L399.34 64.7431C400.941 63.1811 403.151 62.5724 405.595 62.5724C408.032 62.5724 410.237 63.1777 411.836 64.7302C413.372 66.1851 414.145 68.0444 414.145 70.1627C414.145 72.2439 413.351 74.0575 411.814 75.4684C410.213 76.9747 408.017 77.5555 405.595 77.5555C403.167 77.5555 400.966 76.9717 399.364 75.4569L399.351 75.4444L399.338 75.4318C397.882 74.0064 397.157 72.2027 397.157 70.1627C397.157 68.0842 397.863 66.236 399.314 64.7687L399.327 64.7558ZM410.397 73.9655C411.513 72.9448 412.072 71.6772 412.072 70.1627C412.072 68.5824 411.513 67.2654 410.397 66.2118C409.317 65.1583 407.717 64.6315 405.595 64.6315C403.473 64.6315 401.872 65.1583 400.793 66.2118C399.751 67.2654 399.23 68.5824 399.23 70.1627C399.23 71.6772 399.751 72.9448 400.793 73.9655C401.872 74.9861 403.473 75.4964 405.595 75.4964C407.717 75.4964 409.317 74.9861 410.397 73.9655ZM521.303 50.0777L520.996 52.4047C519.93 60.4672 516.516 66.8646 510.667 71.3919L510.666 71.3925C504.879 75.8666 497.295 78 488.119 78C478.032 78 469.752 74.7799 463.498 68.2202L463.494 68.2154C457.286 61.6621 454.276 52.9673 454.276 42.3583V35.4442C454.276 28.4829 455.673 22.2674 458.534 16.8561L458.537 16.8509L458.539 16.8457C461.441 11.4321 465.559 7.25261 470.87 4.3553C476.171 1.43054 482.258 0 489.069 0C498.047 0 505.479 2.22913 511.154 6.88748C516.839 11.5209 520.093 17.9334 521 25.9288L521.26 28.2187H506.399L506.118 26.4876C505.233 21.0382 503.356 17.4357 500.757 15.3011L500.752 15.2972L500.748 15.2933C498.153 13.1364 494.352 11.9212 489.069 11.9212C482.723 11.9212 477.954 13.9696 474.5 17.926C471.063 21.9046 469.198 27.7278 469.198 35.6911V42.6546C469.198 50.1444 470.965 55.8508 474.276 59.9927C477.518 64.0477 482.041 66.1282 488.119 66.1282C493.839 66.1282 497.885 64.9839 500.549 62.9888C503.162 61.0272 505.125 57.4504 506.122 51.7824L506.422 50.0777H521.303ZM501.799 64.6315C498.635 67.002 494.075 68.1873 488.119 68.1873C481.494 68.1873 476.338 65.8826 472.653 61.2732C468.968 56.6638 467.125 50.4576 467.125 42.6546V35.6911C467.125 27.4272 469.061 21.0563 472.932 16.5786C476.841 12.101 482.219 9.86211 489.069 9.86211C494.652 9.86211 498.989 11.1462 502.078 13.7142C505.205 16.2823 507.234 20.4308 508.164 26.1596H518.94C518.861 25.459 518.763 24.7726 518.645 24.1005C517.502 17.5389 514.566 12.3319 509.839 8.47929C504.628 4.19915 497.704 2.05908 489.069 2.05908C482.554 2.05908 476.822 3.42543 471.871 6.15814C466.921 8.85792 463.087 12.743 460.369 17.8133C457.689 22.8836 456.349 28.7606 456.349 35.4442V42.3583C456.349 52.5648 459.234 60.7135 465.004 66.8045C470.81 72.8954 478.516 75.9409 488.119 75.9409C496.979 75.9409 504.07 73.8832 509.393 69.7676C514.259 66.0016 517.33 60.811 518.607 54.1958C518.737 53.5241 518.848 52.8378 518.94 52.1367H508.164C507.122 58.0631 505 62.228 501.799 64.6315ZM581.085 74.9532L563.441 45.8647H544.346V74.9532H533.569V3.0468L560.482 3.0468C569.639 3.0468 576.674 4.89056 581.588 8.57806C586.538 12.2656 589.014 17.6322 589.014 24.678C589.014 29.1557 587.637 33.0572 584.882 36.3825C582.544 39.2437 579.407 41.4834 575.47 43.1015C574.832 43.364 574.172 43.6101 573.492 43.8399L592.587 74.3606V74.9532H581.085ZM576.578 44.8725L594.66 73.7729V77.0123H579.914L562.27 47.9238H546.419V77.0123H531.496V0.987725L560.482 0.987725C569.879 0.987725 577.424 2.87387 582.835 6.93339C588.387 11.0703 591.087 17.0938 591.087 24.678C591.087 29.6106 589.557 33.9782 586.486 37.6869C583.963 40.7716 580.637 43.1542 576.578 44.8725ZM572.217 32.8328L572.221 32.8291C574.863 30.7948 576.165 28.1439 576.165 24.678C576.165 20.7467 574.862 17.9829 572.428 16.0695L572.423 16.0657L572.419 16.0618C569.945 14.0929 566.159 12.9412 560.755 12.9089L546.419 12.9089V36.052H560.817C565.833 36.052 569.557 34.9051 572.212 32.8364L572.217 32.8328ZM544.346 38.111V10.8498L560.761 10.8498C566.419 10.8828 570.737 12.0845 573.715 14.455C576.73 16.8256 578.238 20.2332 578.238 24.678C578.238 28.7606 576.656 32.0201 573.492 34.4565C570.365 36.8929 566.14 38.111 560.817 38.111H544.346ZM652.115 43.7753H616.883V65.1405L657.81 65.1405V77.0123L602.016 77.0123V0.987725L657.252 0.987725V12.9089L616.883 12.9089V31.9035H652.115V43.7753ZM614.81 33.9626V10.8498L655.179 10.8498V3.0468L604.089 3.0468V74.9532L655.737 74.9532V67.1996L614.81 67.1996V41.7162H650.042V33.9626H614.81ZM692.253 3.0468L701.634 3.0468L732.734 74.9532H721.734L713.973 56.1864L679.914 56.1864L672.264 74.9532H661.209L692.253 3.0468ZM681.311 58.2455L673.661 77.0123H658.064L690.887 0.987725L702.999 0.987725L735.881 77.0123H720.345L712.584 58.2455L681.311 58.2455ZM794.662 12.9089L768.531 12.9089V77.0123H753.721V12.9089L727.646 12.9089V0.987725L794.662 0.987725V12.9089ZM755.794 10.8498V74.9532H766.458V10.8498L792.589 10.8498V3.0468L729.719 3.0468V10.8498L755.794 10.8498ZM852.675 43.7753L817.443 43.7753V65.1405H858.37V77.0123H802.577V0.987725L857.812 0.987725V12.9089L817.443 12.9089V31.9035H852.675V43.7753ZM815.37 33.9626V10.8498L855.739 10.8498V3.0468L804.65 3.0468V74.9532H856.297V67.1996H815.37V41.7162L850.602 41.7162V33.9626L815.37 33.9626ZM868.344 64.7558L868.357 64.7431C869.957 63.1811 872.167 62.5724 874.611 62.5724C877.049 62.5724 879.253 63.1777 880.853 64.7302C882.389 66.1851 883.161 68.0444 883.161 70.1627C883.161 72.245 882.366 74.0595 880.828 75.4708C879.227 76.9753 877.032 77.5555 874.611 77.5555C872.183 77.5555 869.982 76.9717 868.38 75.4569L868.367 75.4444L868.354 75.4318C866.899 74.0064 866.173 72.2027 866.173 70.1627C866.173 68.0842 866.879 66.236 868.331 64.7687L868.344 64.7558ZM879.413 73.9655C880.53 72.9448 881.088 71.6772 881.088 70.1627C881.088 68.5824 880.53 67.2654 879.413 66.2118C878.334 65.1583 876.733 64.6315 874.611 64.6315C872.49 64.6315 870.889 65.1583 869.81 66.2118C868.767 67.2654 868.246 68.5824 868.246 70.1627C868.246 71.6772 868.767 72.9448 869.81 73.9655C870.889 74.9861 872.49 75.4964 874.611 75.4964C876.733 75.4964 878.334 74.9861 879.413 73.9655ZM941.733 77.0123H926.866V0.987725L941.733 0.987725V77.0123ZM1023.87 77.0123H1009.97L972.163 25.8295V77.0123H957.241V0.987725L971.141 0.987725L1009.06 52.4087V0.987725L1023.87 0.987725V77.0123ZM1011.13 58.7051L970.09 3.0468L959.314 3.0468V74.9532H970.09V19.5418L1011.02 74.9532H1021.79V3.0468L1011.13 3.0468V58.7051ZM1094.66 21.7793C1094.73 22.4562 1094.77 23.1425 1094.77 23.8384H1083.99C1083.99 19.4924 1082.43 16.0848 1079.3 13.6155C1076.18 11.1132 1071.77 9.86211 1066.07 9.86211C1060.78 9.86211 1056.65 10.8992 1053.68 12.9734C1050.73 15.0147 1049.26 17.8627 1049.26 21.5173C1049.26 24.4475 1050.66 26.9333 1053.45 28.9746C1056.28 30.983 1061.06 32.8267 1067.8 34.5058C1074.58 36.185 1079.86 38.0452 1083.66 40.0865C1087.49 42.0949 1090.32 44.449 1092.15 47.1487C1094.01 49.8485 1094.94 53.0257 1094.94 56.6803C1094.94 62.5079 1092.37 67.1831 1087.23 70.706C1082.1 74.1959 1075.23 75.9409 1066.63 75.9409C1061.05 75.9409 1055.83 75.0026 1051 73.1259C1046.16 71.2163 1042.42 68.6153 1039.77 65.3229C1037.6 62.5807 1036.34 59.5301 1035.97 56.1713C1035.9 55.4973 1035.86 54.811 1035.86 54.1122H1046.64C1046.64 58.4582 1048.45 61.8988 1052.06 64.4339C1055.7 66.9362 1060.56 68.1873 1066.63 68.1873C1072.29 68.1873 1076.62 67.1666 1079.64 65.1253C1082.65 63.084 1084.16 60.3019 1084.16 56.779C1084.16 53.2562 1082.77 50.5399 1079.97 48.6303C1077.18 46.6878 1072.12 44.7782 1064.79 42.9015C1055.59 40.5639 1048.89 37.6995 1044.69 34.3083C1040.52 30.8842 1038.43 26.6699 1038.43 21.6654C1038.43 16.0025 1040.98 11.3272 1046.08 7.63973C1051.22 3.9193 1057.88 2.05908 1066.07 2.05908C1071.65 2.05908 1076.62 3.01388 1080.98 4.92348C1085.37 6.83308 1088.76 9.46702 1091.14 12.8253C1093.14 15.5969 1094.31 18.5816 1094.66 21.7793ZM1092.83 11.6278C1095.49 15.3218 1096.84 19.4087 1096.84 23.8384V25.8975H1081.92V23.8384C1081.92 20.0517 1080.59 17.2652 1078.01 15.2272L1078.01 15.2231L1078 15.2189C1075.37 13.1131 1071.49 11.9212 1066.07 11.9212C1061.03 11.9212 1057.37 12.9154 1054.87 14.6593L1054.86 14.6612C1052.49 16.3057 1051.34 18.5147 1051.34 21.5173C1051.34 23.6693 1052.31 25.5797 1054.67 27.3078C1057.17 29.0778 1061.63 30.8446 1068.3 32.508C1075.15 34.2051 1080.62 36.1139 1084.63 38.2696C1088.67 40.3841 1091.79 42.9376 1093.86 45.9907C1095.98 49.0714 1097.01 52.6632 1097.01 56.6803C1097.01 63.2341 1094.07 68.5222 1088.41 72.4004L1088.41 72.403L1088.4 72.4055C1082.81 76.2036 1075.49 78 1066.63 78C1060.81 78 1055.34 77.0206 1050.24 75.044L1050.24 75.0417L1050.23 75.0395C1045.13 73.0275 1041.07 70.2367 1038.15 66.6065L1038.15 66.601L1038.14 66.5954C1035.25 62.9407 1033.79 58.7559 1033.79 54.1122V52.0531H1048.71V54.1122C1048.71 57.7783 1050.18 60.5938 1053.25 62.7473C1056.44 64.934 1060.84 66.1282 1066.63 66.1282C1072.08 66.1282 1075.94 65.1363 1078.47 63.4239C1080.94 61.7529 1082.09 59.5978 1082.09 56.779C1082.09 53.8963 1081 51.8308 1078.8 50.3262L1078.79 50.3215L1078.78 50.3168C1076.32 48.6052 1071.59 46.7679 1064.27 44.8963C1054.97 42.5323 1047.93 39.5768 1043.38 35.907L1043.37 35.9011L1043.36 35.8952C1038.76 32.1128 1036.36 27.3336 1036.36 21.6654C1036.36 15.2669 1039.29 10.0023 1044.86 5.97504C1050.44 1.93297 1057.57 0 1066.07 0C1071.89 0 1077.15 0.995799 1081.81 3.0383C1086.49 5.07211 1090.2 7.92229 1092.83 11.6278ZM1121.52 77.0123H1106.66V0.987725L1138.71 0.987725C1147.9 0.987725 1155.38 3.0615 1160.89 7.46484C1166.46 11.8848 1169.26 17.8014 1169.26 25.0237C1169.26 32.5516 1166.56 38.5761 1161.03 42.8045L1161.03 42.8052C1155.61 46.9407 1148.04 48.8621 1138.6 48.8621H1121.52V77.0123ZM1119.45 74.9532H1108.73V3.0468L1138.71 3.0468C1147.61 3.0468 1154.57 5.05518 1159.59 9.07193C1164.66 13.0887 1167.19 18.4059 1167.19 25.0237C1167.19 32.0036 1164.71 37.3867 1159.76 41.173C1154.85 44.9264 1147.79 46.803 1138.6 46.803H1119.45V74.9532ZM1194.44 77.0123H1179.58V0.987725L1194.44 0.987725V77.0123ZM1259.48 74.9532L1241.84 45.8647H1222.74V74.9532H1211.97V3.0468L1238.88 3.0468C1248.04 3.0468 1255.07 4.89056 1259.99 8.57806C1264.94 12.2656 1267.41 17.6322 1267.41 24.678C1267.41 29.1557 1266.04 33.0572 1263.28 36.3825C1260.94 39.2437 1257.81 41.4834 1253.87 43.1015C1253.23 43.364 1252.57 43.6101 1251.89 43.8399L1270.99 74.3606V74.9532H1259.48ZM1254.98 44.8725L1273.06 73.7729V77.0123H1258.31L1240.67 47.9238H1224.82V77.0123H1209.9V0.987725L1238.88 0.987725C1248.28 0.987725 1255.82 2.87303 1261.23 6.93071C1266.78 11.0677 1269.49 17.0922 1269.49 24.678C1269.49 29.6106 1267.96 33.9782 1264.88 37.6869C1262.36 40.7716 1259.04 43.1542 1254.98 44.8725ZM1250.62 32.8328L1250.62 32.8291C1253.26 30.7948 1254.56 28.1439 1254.56 24.678C1254.56 20.7467 1253.26 17.9829 1250.83 16.0695L1250.82 16.0657L1250.82 16.0618C1248.34 14.0929 1244.56 12.9412 1239.15 12.9089L1224.82 12.9089V36.052H1239.22C1244.23 36.052 1247.96 34.9051 1250.61 32.8364L1250.62 32.8328ZM1222.74 38.111V10.8498L1239.16 10.8498C1244.82 10.8828 1249.14 12.0845 1252.11 14.455C1255.13 16.8256 1256.64 20.2332 1256.64 24.678C1256.64 28.7606 1255.05 32.0201 1251.89 34.4565C1248.76 36.8929 1244.54 38.111 1239.22 38.111H1222.74ZM1330.51 43.7753H1295.28V65.1405H1336.21V77.0123H1280.42V0.987725L1335.65 0.987725V12.9089L1295.28 12.9089V31.9035L1330.51 31.9035V43.7753ZM1293.21 33.9626V10.8498L1333.58 10.8498V3.0468L1282.49 3.0468V74.9532H1334.14V67.1996H1293.21V41.7162H1328.44V33.9626H1293.21ZM1346.18 64.7558L1346.2 64.7431C1347.8 63.1811 1350.01 62.5724 1352.45 62.5724C1354.89 62.5724 1357.09 63.177 1358.69 64.7277C1360.23 66.183 1361 68.0432 1361 70.1627C1361 72.245 1360.2 74.0595 1358.67 75.4708C1357.07 76.9753 1354.87 77.5555 1352.45 77.5555C1350.02 77.5555 1347.82 76.9717 1346.22 75.4569L1346.21 75.4444L1346.19 75.4318C1344.74 74.0064 1344.01 72.2027 1344.01 70.1627C1344.01 68.0842 1344.72 66.236 1346.17 64.7687L1346.18 64.7558ZM1357.25 73.9655C1358.37 72.9448 1358.93 71.6772 1358.93 70.1627C1358.93 68.5824 1358.37 67.2654 1357.25 66.2118C1356.17 65.1583 1354.57 64.6315 1352.45 64.6315C1350.33 64.6315 1348.73 65.1583 1347.65 66.2118C1346.61 67.2654 1346.08 68.5824 1346.08 70.1627C1346.08 71.6772 1346.61 72.9448 1347.65 73.9655C1348.73 74.9861 1350.33 75.4964 1352.45 75.4964C1354.57 75.4964 1356.17 74.9861 1357.25 73.9655ZM710.791 48.3834L696.943 14.7513L683.152 48.3834L710.791 48.3834ZM686.235 46.3243L696.947 20.2005L707.703 46.3243L686.235 46.3243ZM1121.52 36.9903H1138.71C1144.19 36.9903 1148.06 35.8524 1150.61 33.8739C1153.08 31.9286 1154.4 29.1172 1154.4 25.1225C1154.4 21.3945 1153.1 18.5651 1150.55 16.4213C1147.97 14.2508 1144.3 13.0046 1139.31 12.9089L1121.52 12.9089V36.9903ZM1119.45 39.0494V10.8498L1139.33 10.8498C1144.65 10.9486 1148.84 12.282 1151.89 14.8501C1154.94 17.4182 1156.47 20.8423 1156.47 25.1225C1156.47 29.6331 1154.94 33.0901 1151.89 35.4936C1148.84 37.8641 1144.44 39.0494 1138.71 39.0494H1119.45ZM221.506 74.9532V3.0468L210.785 3.0468V74.9532H221.506ZM928.939 74.9532V3.0468L939.66 3.0468V74.9532H928.939ZM1181.65 74.9532V3.0468L1192.37 3.0468V74.9532H1181.65Z" fill="#353535"/>
</svg>
