<svg width="3371" height="146" viewBox="0 0 3371 146" fill="none" xmlns="http://www.w3.org/2000/svg">
<mask id="path-1-outside-1" maskUnits="userSpaceOnUse" x="0" y="0" width="3307" height="146" fill="black">
<rect fill="white" width="3307" height="146"/>
<path d="M2 88.2768L21.1251 81.7675C23.4272 86.0185 26.9247 89.5609 31.6174 92.3948C36.3987 95.2288 41.3571 96.6458 46.4925 96.6458C51.5394 96.6458 55.5681 95.4502 58.5785 93.059C61.6775 90.5793 63.227 87.4797 63.227 83.7601C63.227 79.5092 61.5004 76.1439 58.0473 73.6642C54.5941 71.0959 49.5029 68.6605 42.7737 66.3579C32.3257 62.9041 25.3309 60.2472 21.7892 58.3875C11.2527 52.631 5.9844 44.1292 5.9844 32.8819C5.9844 23.6716 9.65891 16.2325 17.0079 10.5646C24.3569 4.80812 33.7867 1.92989 45.2972 1.92989C55.2139 1.92989 63.5812 4.27675 70.3989 8.97048C77.3052 13.5756 82.3964 19.5535 85.6725 26.9041L67.0786 33.0148C61.2348 24.9557 53.9301 20.9262 45.1644 20.9262C40.1175 20.9262 36.1331 22.0332 33.2112 24.2472C30.2893 26.3727 28.8283 29.2066 28.8283 32.7491C28.8283 34.2546 29.0497 35.6273 29.4924 36.8672C29.9351 38.107 30.7762 39.2583 32.0158 40.321C33.344 41.3838 34.4508 42.2694 35.3362 42.9779C36.3101 43.6863 37.9039 44.4834 40.1175 45.369C42.4196 46.2546 44.1019 46.9188 45.1644 47.3616C46.3154 47.7159 48.3519 48.3358 51.2738 49.2214C54.2842 50.107 56.2764 50.7269 57.2504 51.0812C61.2348 52.4096 64.7765 53.8708 67.8755 55.4649C71.063 57.059 74.1177 59.0959 77.0396 61.5756C79.9615 63.9668 82.2193 66.9779 83.8131 70.6089C85.4068 74.2399 86.2037 78.3137 86.2037 82.8303C86.2037 93.1919 82.3521 101.251 74.649 107.007C67.0343 112.675 57.4717 115.509 45.9612 115.509C35.956 115.509 27.0132 113.074 19.1329 108.203C11.2527 103.332 5.54169 96.69 2 88.2768Z"/>
<path d="M115.423 73.1328C115.423 81.9004 117.061 88.1439 120.337 91.8635C123.613 95.583 127.243 97.4428 131.227 97.4428C132.91 97.4428 134.548 97.0886 136.142 96.3801C137.824 95.583 139.506 94.3875 141.188 92.7934C142.871 91.1107 144.243 88.5867 145.306 85.2214C146.368 81.7675 146.899 77.738 146.899 73.1328C146.899 68.4391 146.368 64.4096 145.306 61.0443C144.332 57.679 142.959 55.155 141.188 53.4723C139.506 51.7897 137.824 50.5941 136.142 49.8856C134.548 49.1771 132.91 48.8229 131.227 48.8229C127.243 48.8229 123.613 50.6827 120.337 54.4022C117.061 58.0332 115.423 64.2768 115.423 73.1328ZM93.6413 73.1328C93.6413 67.6421 94.3496 62.4613 95.7663 57.5904C97.183 52.631 99.308 48.1144 102.141 44.0406C105.063 39.9668 109.003 36.7343 113.962 34.3432C119.009 31.952 124.764 30.7565 131.227 30.7565C137.691 30.7565 143.402 31.952 148.36 34.3432C153.319 36.7343 157.215 39.9668 160.048 44.0406C162.97 48.1144 165.139 52.631 166.556 57.5904C167.973 62.4613 168.681 67.6421 168.681 73.1328C168.681 76.6753 168.371 80.2177 167.751 83.7601C167.131 87.214 165.936 90.9336 164.165 94.9188C162.483 98.8155 160.314 102.269 157.657 105.28C155.001 108.203 151.371 110.638 146.767 112.587C142.251 114.535 137.071 115.509 131.227 115.509C125.472 115.509 120.337 114.579 115.821 112.72C111.305 110.86 107.675 108.513 104.93 105.679C102.186 102.756 99.9278 99.3911 98.1569 95.583C96.4746 91.6863 95.2793 87.9225 94.571 84.2915C93.9512 80.6605 93.6413 76.941 93.6413 73.1328Z"/>
<path d="M176.782 73.1328C176.782 60.0258 180.324 49.7085 187.408 42.1808C194.491 34.5646 203.522 30.7565 214.502 30.7565C223.002 30.7565 230.041 33.369 235.619 38.5941C241.197 43.8192 244.65 49.6642 245.978 56.1292L228.048 61.0443C227.163 57.7675 225.614 54.9336 223.4 52.5424C221.186 50.0627 218.353 48.8229 214.9 48.8229C209.587 48.8229 205.559 51.1255 202.814 55.7306C200.069 60.3358 198.697 66.1365 198.697 73.1328C198.697 81.0148 200.202 87.0369 203.212 91.1993C206.311 95.3616 210.207 97.4428 214.9 97.4428C218.796 97.4428 222.072 96.1144 224.728 93.4576C227.384 90.8007 229.111 87.7454 229.908 84.2915L247.838 89.0738C246.332 95.9816 242.481 102.137 236.283 107.539C230.085 112.852 222.824 115.509 214.502 115.509C203.345 115.509 194.27 111.657 187.275 103.952C180.28 96.2472 176.782 85.9742 176.782 73.1328Z"/>
<path d="M258.994 24.6458V2.85978H280.377V24.6458H258.994ZM259.26 113.118V33.1476H280.244V113.118H259.26Z"/>
<path d="M314.908 89.4723C314.908 91.8635 315.838 93.9004 317.698 95.583C319.557 97.1771 321.948 97.9742 324.869 97.9742C329.562 97.9742 333.547 96.3801 336.823 93.1919C340.099 90.0037 341.737 85.7528 341.737 80.4391V75.1255C336.601 76.3653 332.528 77.2066 329.518 77.6494C319.778 79.0664 314.908 83.0074 314.908 89.4723ZM293.393 91.3321C293.393 84.0701 296.182 78.048 301.76 73.2657C307.338 68.4834 315.528 65.2952 326.33 63.7011C335.185 62.2841 340.32 61.3542 341.737 60.9114V56.7934C341.737 53.5166 340.586 51.1255 338.284 49.6199C336.07 48.0258 333.148 47.2288 329.518 47.2288C321.195 47.2288 314.023 50.5055 308.002 57.059L295.518 46.2989C304.195 35.9373 315.44 30.7565 329.252 30.7565C341.471 30.7565 350.148 33.679 355.284 39.524C360.419 45.369 362.987 53.6494 362.987 64.3653V113.118H342.401V104.882C340.807 107.893 338.151 110.417 334.432 112.454C330.713 114.491 326.463 115.509 321.682 115.509C313.005 115.509 306.099 113.295 300.963 108.867C295.916 104.351 293.393 98.5055 293.393 91.3321Z"/>
<path d="M379.589 113.118V1H400.839V113.118H379.589Z"/>
<path d="M453.964 113.118V4.32103H480.527L496.597 50.1513C497.837 53.7823 499.431 58.8303 501.379 65.2952C503.326 71.6716 504.655 75.9668 505.363 78.1808H505.894C510.675 63.5683 513.774 54.2251 515.191 50.1513L530.863 4.32103H557.559V113.118H535.644V71.1402C535.644 64.2325 536.441 52.8967 538.035 37.1328H537.371L528.074 65.5609L513.465 108.07H498.058L483.582 65.5609L474.152 36.8672H473.355C474.949 49.8856 475.746 61.31 475.746 71.1402V113.118H453.964Z"/>
<path d="M572.035 72.8672C572.035 59.8487 575.666 49.5756 582.926 42.048C590.186 34.5203 599.174 30.7565 609.887 30.7565C620.247 30.7565 629.012 34.6531 636.184 42.4465C643.445 50.1513 647.075 60.2915 647.075 72.8672C647.075 75.4354 646.942 78.0037 646.676 80.572H593.551C593.551 85.6199 595.145 89.9151 598.332 93.4576C601.52 96.9114 605.814 98.6384 611.215 98.6384C615.2 98.6384 618.653 97.6642 621.575 95.7159C624.585 93.679 626.843 91.1107 628.348 88.0111L646.012 94.2546C643.356 100.188 639.018 105.236 632.997 109.399C626.976 113.472 619.494 115.509 610.551 115.509C599.306 115.509 590.054 111.657 582.793 103.952C575.621 96.2472 572.035 85.8856 572.035 72.8672ZM593.684 66.0923H625.426C625.426 60.9557 624.054 56.572 621.309 52.941C618.653 49.2214 614.845 47.3616 609.887 47.3616C604.84 47.3616 600.856 49.2214 597.934 52.941C595.101 56.6605 593.684 61.0443 593.684 66.0923Z"/>
<path d="M654.911 73C654.911 59.8044 658.098 49.4871 664.473 42.048C670.937 34.5203 679.216 30.7565 689.31 30.7565C696.747 30.7565 702.724 33.5018 707.239 38.9926V1H728.357V113.118H707.771V105.148C706.177 107.893 703.653 110.328 700.2 112.454C696.747 114.491 693.073 115.509 689.177 115.509C684.927 115.509 680.81 114.712 676.825 113.118C672.929 111.524 669.299 109.133 665.934 105.945C662.57 102.756 659.869 98.3284 657.833 92.6605C655.885 86.9926 654.911 80.4391 654.911 73ZM676.692 73C676.692 80.8819 678.065 86.9483 680.81 91.1993C683.643 95.3616 687.45 97.4428 692.231 97.4428C696.924 97.4428 700.599 95.2731 703.255 90.9336C706 86.5941 707.372 80.6162 707.372 73C707.372 65.738 706.088 59.893 703.521 55.4649C700.953 51.0369 697.19 48.8229 692.231 48.8229C687.096 48.8229 683.2 51.0369 680.544 55.4649C677.976 59.8044 676.692 65.6494 676.692 73Z"/>
<path d="M746.287 24.6458V2.85978H767.67V24.6458H746.287ZM746.552 113.118V33.1476H767.537V113.118H746.552Z"/>
<path d="M802.201 89.4723C802.201 91.8635 803.131 93.9004 804.99 95.583C806.849 97.1771 809.24 97.9742 812.162 97.9742C816.855 97.9742 820.839 96.3801 824.115 93.1919C827.391 90.0037 829.029 85.7528 829.029 80.4391V75.1255C823.894 76.3653 819.821 77.2066 816.81 77.6494C807.071 79.0664 802.201 83.0074 802.201 89.4723ZM780.685 91.3321C780.685 84.0701 783.474 78.048 789.052 73.2657C794.631 68.4834 802.821 65.2952 813.623 63.7011C822.477 62.2841 827.613 61.3542 829.029 60.9114V56.7934C829.029 53.5166 827.878 51.1255 825.576 49.6199C823.363 48.0258 820.441 47.2288 816.81 47.2288C808.487 47.2288 801.316 50.5055 795.295 57.059L782.81 46.2989C791.487 35.9373 802.732 30.7565 816.545 30.7565C828.764 30.7565 837.441 33.679 842.576 39.524C847.712 45.369 850.279 53.6494 850.279 64.3653V113.118H829.693V104.882C828.1 107.893 825.443 110.417 821.725 112.454C818.006 114.491 813.756 115.509 808.974 115.509C800.297 115.509 793.391 113.295 788.256 108.867C783.209 104.351 780.685 98.5055 780.685 91.3321Z"/>
<path d="M901.014 113.118V4.32103H927.577L943.647 50.1513C944.887 53.7823 946.481 58.8303 948.429 65.2952C950.377 71.6716 951.705 75.9668 952.413 78.1808H952.944C957.726 63.5683 960.825 54.2251 962.241 50.1513L977.913 4.32103H1004.61V113.118H982.694V71.1402C982.694 64.2325 983.491 52.8967 985.085 37.1328H984.421L975.124 65.5609L960.515 108.07H945.108L930.632 65.5609L921.202 36.8672H920.405C921.999 49.8856 922.796 61.31 922.796 71.1402V113.118H901.014Z"/>
<path d="M1040.47 89.4723C1040.47 91.8635 1041.4 93.9004 1043.26 95.583C1045.12 97.1771 1047.51 97.9742 1050.43 97.9742C1055.12 97.9742 1059.11 96.3801 1062.38 93.1919C1065.66 90.0037 1067.3 85.7528 1067.3 80.4391V75.1255C1062.16 76.3653 1058.09 77.2066 1055.08 77.6494C1045.34 79.0664 1040.47 83.0074 1040.47 89.4723ZM1018.95 91.3321C1018.95 84.0701 1021.74 78.048 1027.32 73.2657C1032.9 68.4834 1041.09 65.2952 1051.89 63.7011C1060.74 62.2841 1065.88 61.3542 1067.3 60.9114V56.7934C1067.3 53.5166 1066.15 51.1255 1063.84 49.6199C1061.63 48.0258 1058.71 47.2288 1055.08 47.2288C1046.75 47.2288 1039.58 50.5055 1033.56 57.059L1021.08 46.2989C1029.75 35.9373 1041 30.7565 1054.81 30.7565C1067.03 30.7565 1075.71 33.679 1080.84 39.524C1085.98 45.369 1088.55 53.6494 1088.55 64.3653V113.118H1067.96V104.882C1066.37 107.893 1063.71 110.417 1059.99 112.454C1056.27 114.491 1052.02 115.509 1047.24 115.509C1038.56 115.509 1031.66 113.295 1026.52 108.867C1021.48 104.351 1018.95 98.5055 1018.95 91.3321Z"/>
<path d="M1103.82 113.118V33.1476H1124.14V40.9852H1124.27C1128.61 34.1661 1135.39 30.7565 1144.59 30.7565C1162.21 30.7565 1171.02 41.1181 1171.02 61.8413V113.118H1149.91V64.3653C1149.91 58.6974 1149.11 54.7122 1147.52 52.4096C1145.92 50.0185 1143.4 48.8229 1139.95 48.8229C1135.52 48.8229 1131.93 50.6384 1129.19 54.2694C1126.44 57.8118 1125.07 62.2841 1125.07 67.6863V113.118H1103.82Z"/>
<path d="M1203.7 89.4723C1203.7 91.8635 1204.63 93.9004 1206.49 95.583C1208.34 97.1771 1210.74 97.9742 1213.66 97.9742C1218.35 97.9742 1222.33 96.3801 1225.61 93.1919C1228.89 90.0037 1230.52 85.7528 1230.52 80.4391V75.1255C1225.39 76.3653 1221.32 77.2066 1218.31 77.6494C1208.57 79.0664 1203.7 83.0074 1203.7 89.4723ZM1182.18 91.3321C1182.18 84.0701 1184.97 78.048 1190.55 73.2657C1196.13 68.4834 1204.32 65.2952 1215.12 63.7011C1223.97 62.2841 1229.11 61.3542 1230.52 60.9114V56.7934C1230.52 53.5166 1229.37 51.1255 1227.07 49.6199C1224.86 48.0258 1221.94 47.2288 1218.31 47.2288C1209.98 47.2288 1202.81 50.5055 1196.79 57.059L1184.31 46.2989C1192.98 35.9373 1204.23 30.7565 1218.04 30.7565C1230.26 30.7565 1238.94 33.679 1244.07 39.524C1249.21 45.369 1251.77 53.6494 1251.77 64.3653V113.118H1231.19V104.882C1229.59 107.893 1226.94 110.417 1223.22 112.454C1219.5 114.491 1215.25 115.509 1210.47 115.509C1201.79 115.509 1194.89 113.295 1189.75 108.867C1184.7 104.351 1182.18 98.5055 1182.18 91.3321Z"/>
<path d="M1285.24 71.5387C1285.24 78.8893 1286.57 84.5129 1289.23 88.4096C1291.88 92.2177 1295.38 94.1218 1299.72 94.1218C1304.06 94.1218 1307.51 92.2177 1310.08 88.4096C1312.65 84.6015 1313.93 78.9779 1313.93 71.5387C1313.93 64.1882 1312.6 58.5646 1309.95 54.6679C1307.38 50.7712 1303.97 48.8229 1299.72 48.8229C1295.29 48.8229 1291.75 50.8155 1289.1 54.8007C1286.53 58.6974 1285.24 64.2768 1285.24 71.5387ZM1263.46 71.6716C1263.46 59.0959 1266.61 49.1328 1272.89 41.7823C1279.27 34.4317 1287.28 30.7565 1296.93 30.7565C1301.09 30.7565 1304.63 31.7306 1307.56 33.679C1310.48 35.6273 1312.6 37.7528 1313.93 40.0554V33.1476H1335.18V101.03C1335.18 116.085 1332.08 127.155 1325.88 134.24C1319.77 141.413 1310.48 145 1297.99 145C1284.09 145 1273.38 139.686 1265.85 129.059L1279.67 119.229C1284.54 125.162 1290.78 128.129 1298.39 128.129C1302.38 128.129 1305.83 126.668 1308.75 123.745C1311.76 120.823 1313.44 117.059 1313.8 112.454C1314.06 109.266 1314.2 106.697 1314.2 104.749C1312.6 106.875 1310.17 108.646 1306.89 110.063C1303.7 111.48 1300.61 112.188 1297.6 112.188C1287.5 112.188 1279.27 108.513 1272.89 101.162C1266.61 93.8118 1263.46 83.9816 1263.46 71.6716Z"/>
<path d="M1346.87 72.8672C1346.87 59.8487 1350.5 49.5756 1357.76 42.048C1365.02 34.5203 1374.01 30.7565 1384.72 30.7565C1395.08 30.7565 1403.85 34.6531 1411.02 42.4465C1418.28 50.1513 1421.91 60.2915 1421.91 72.8672C1421.91 75.4354 1421.78 78.0037 1421.51 80.572H1368.38C1368.38 85.6199 1369.98 89.9151 1373.17 93.4576C1376.35 96.9114 1380.65 98.6384 1386.05 98.6384C1390.03 98.6384 1393.49 97.6642 1396.41 95.7159C1399.42 93.679 1401.68 91.1107 1403.18 88.0111L1420.85 94.2546C1418.19 100.188 1413.85 105.236 1407.83 109.399C1401.81 113.472 1394.33 115.509 1385.38 115.509C1374.14 115.509 1364.89 111.657 1357.63 103.952C1350.45 96.2472 1346.87 85.8856 1346.87 72.8672ZM1368.52 66.0923H1400.26C1400.26 60.9557 1398.89 56.572 1396.14 52.941C1393.49 49.2214 1389.68 47.3616 1384.72 47.3616C1379.67 47.3616 1375.69 49.2214 1372.77 52.941C1369.93 56.6605 1368.52 61.0443 1368.52 66.0923Z"/>
<path d="M1433.86 113.118V33.1476H1454.18V40.7196H1454.32C1455.2 39.4797 1456.31 38.2399 1457.64 37C1459.05 35.6716 1461.27 34.2989 1464.28 32.8819C1467.29 31.4649 1470.39 30.7565 1473.57 30.7565C1481.9 30.7565 1488.14 34.7417 1492.3 42.7122C1497.35 34.7417 1505.05 30.7565 1515.41 30.7565C1520.19 30.7565 1524.26 31.5978 1527.63 33.2804C1531.08 34.9631 1533.74 37.3542 1535.6 40.4539C1537.46 43.4649 1538.78 46.7417 1539.58 50.2841C1540.38 53.738 1540.78 57.5904 1540.78 61.8413V113.118H1519.53V62.2399C1519.53 57.7232 1518.86 54.3579 1517.53 52.1439C1516.21 49.9299 1513.99 48.8229 1510.89 48.8229C1506.82 48.8229 1503.59 50.5498 1501.2 54.0037C1498.9 57.369 1497.74 61.3985 1497.74 66.0923V113.118H1476.76V61.7085C1476.76 57.7232 1476.01 54.5793 1474.5 52.2768C1473.09 49.9742 1470.96 48.8229 1468.13 48.8229C1463.79 48.8229 1460.51 50.417 1458.3 53.6052C1456.17 56.7048 1455.11 60.8672 1455.11 66.0923V113.118H1433.86Z"/>
<path d="M1551.93 72.8672C1551.93 59.8487 1555.56 49.5756 1562.82 42.048C1570.08 34.5203 1579.07 30.7565 1589.78 30.7565C1600.14 30.7565 1608.91 34.6531 1616.08 42.4465C1623.34 50.1513 1626.97 60.2915 1626.97 72.8672C1626.97 75.4354 1626.84 78.0037 1626.57 80.572H1573.45C1573.45 85.6199 1575.04 89.9151 1578.23 93.4576C1581.42 96.9114 1585.71 98.6384 1591.11 98.6384C1595.1 98.6384 1598.55 97.6642 1601.47 95.7159C1604.48 93.679 1606.74 91.1107 1608.25 88.0111L1625.91 94.2546C1623.25 100.188 1618.92 105.236 1612.89 109.399C1606.87 113.472 1599.39 115.509 1590.45 115.509C1579.2 115.509 1569.95 111.657 1562.69 103.952C1555.52 96.2472 1551.93 85.8856 1551.93 72.8672ZM1573.58 66.0923H1605.32C1605.32 60.9557 1603.95 56.572 1601.21 52.941C1598.55 49.2214 1594.74 47.3616 1589.78 47.3616C1584.74 47.3616 1580.75 49.2214 1577.83 52.941C1575 56.6605 1573.58 61.0443 1573.58 66.0923Z"/>
<path d="M1638.93 113.118V33.1476H1659.25V40.9852H1659.38C1663.72 34.1661 1670.49 30.7565 1679.7 30.7565C1697.32 30.7565 1706.13 41.1181 1706.13 61.8413V113.118H1685.01V64.3653C1685.01 58.6974 1684.22 54.7122 1682.62 52.4096C1681.03 50.0185 1678.5 48.8229 1675.05 48.8229C1670.62 48.8229 1667.04 50.6384 1664.29 54.2694C1661.55 57.8118 1660.18 62.2841 1660.18 67.6863V113.118H1638.93Z"/>
<path d="M1714.89 51.0812V33.1476H1726.32V10.4317H1747.3V33.1476H1763.9V51.0812H1747.3V86.2841C1747.3 92.1292 1749.87 95.0517 1755 95.0517H1764.04V113.118H1752.35C1734.99 113.118 1726.32 104.572 1726.32 87.4797V51.0812H1714.89Z"/>
<path d="M1828.58 83.0959C1828.58 87.524 1830 91.0664 1832.83 93.7232C1835.67 96.2915 1839.34 97.5756 1843.86 97.5756C1849.61 97.5756 1854.92 95.2731 1859.79 90.6679L1838.94 64.0996C1832.04 69.9447 1828.58 76.2768 1828.58 83.0959ZM1806.67 83.4945C1806.67 70.476 1814.02 59.0959 1828.72 49.3542C1822.78 42.0037 1819.82 35.7159 1819.82 30.4908C1819.82 22.6089 1822.56 16.4096 1828.05 11.893C1833.54 7.37638 1840.85 5.11808 1849.97 5.11808C1858.11 5.11808 1864.97 7.19926 1870.55 11.3616C1876.22 15.524 1880.2 20.6162 1882.51 26.6384L1866.97 33.4133C1862.8 26.5055 1857.8 23.0517 1851.96 23.0517C1845.14 23.0517 1841.73 25.7528 1841.73 31.155C1841.73 32.3063 1842.13 33.7675 1842.93 35.5387C1843.81 37.31 1845.27 39.6568 1847.31 42.5793C1849.43 45.5018 1851.38 48.1144 1853.15 50.417C1854.92 52.7196 1857.67 56.262 1861.39 61.0443C1865.2 65.738 1868.21 69.5018 1870.42 72.3358C1871.84 68.3506 1873.03 63.2583 1874.01 57.059L1893.26 60.5129C1892.38 66.4465 1890.96 72.0701 1889.01 77.3838C1887.07 82.6089 1885.21 86.6384 1883.44 89.4723L1902.43 113.118H1876.79L1871.22 106.077C1863.07 112.454 1853.95 115.642 1843.86 115.642C1832.17 115.642 1823.05 112.542 1816.5 106.343C1809.95 100.055 1806.67 92.4391 1806.67 83.4945Z"/>
<path d="M1940.01 88.2768L1959.14 81.7675C1961.44 86.0185 1964.94 89.5609 1969.63 92.3948C1974.41 95.2288 1979.37 96.6458 1984.51 96.6458C1989.55 96.6458 1993.58 95.4502 1996.59 93.059C1999.69 90.5793 2001.24 87.4797 2001.24 83.7601C2001.24 79.5092 1999.51 76.1439 1996.06 73.6642C1992.61 71.0959 1987.52 68.6605 1980.79 66.3579C1970.34 62.9041 1963.34 60.2472 1959.8 58.3875C1949.27 52.631 1944 44.1292 1944 32.8819C1944 23.6716 1947.67 16.2325 1955.02 10.5646C1962.37 4.80812 1971.8 1.92989 1983.31 1.92989C1993.23 1.92989 2001.59 4.27675 2008.41 8.97048C2015.32 13.5756 2020.41 19.5535 2023.69 26.9041L2005.09 33.0148C1999.25 24.9557 1991.94 20.9262 1983.18 20.9262C1978.13 20.9262 1974.15 22.0332 1971.22 24.2472C1968.3 26.3727 1966.84 29.2066 1966.84 32.7491C1966.84 34.2546 1967.06 35.6273 1967.51 36.8672C1967.95 38.107 1968.79 39.2583 1970.03 40.321C1971.36 41.3838 1972.46 42.2694 1973.35 42.9779C1974.32 43.6863 1975.92 44.4834 1978.13 45.369C1980.43 46.2546 1982.12 46.9188 1983.18 47.3616C1984.33 47.7159 1986.37 48.3358 1989.29 49.2214C1992.3 50.107 1994.29 50.7269 1995.26 51.0812C1999.25 52.4096 2002.79 53.8708 2005.89 55.4649C2009.08 57.059 2012.13 59.0959 2015.05 61.5756C2017.98 63.9668 2020.23 66.9779 2021.83 70.6089C2023.42 74.2399 2024.22 78.3137 2024.22 82.8303C2024.22 93.1919 2020.37 101.251 2012.66 107.007C2005.05 112.675 1995.49 115.509 1983.98 115.509C1973.97 115.509 1965.03 113.074 1957.15 108.203C1949.27 103.332 1943.56 96.69 1940.01 88.2768Z"/>
<path d="M2029.8 51.0812V33.1476H2041.22V10.4317H2062.2V33.1476H2078.8V51.0812H2062.2V86.2841C2062.2 92.1292 2064.77 95.0517 2069.91 95.0517H2078.94V113.118H2067.25C2049.89 113.118 2041.22 104.572 2041.22 87.4797V51.0812H2029.8Z"/>
<path d="M2091.02 113.118V33.1476H2111.34V39.9225C2113.03 37.4428 2115.42 35.3173 2118.52 33.5461C2121.7 31.6863 2125.24 30.7565 2129.14 30.7565C2133.74 30.7565 2137.02 31.2435 2138.97 32.2177V51.6125C2135.87 50.6384 2132.59 50.1513 2129.14 50.1513C2123.47 50.1513 2119.22 52.3653 2116.39 56.7934C2113.65 61.2214 2112.27 67.155 2112.27 74.5941V113.118H2091.02Z"/>
<path d="M2163.54 89.4723C2163.54 91.8635 2164.47 93.9004 2166.33 95.583C2168.19 97.1771 2170.58 97.9742 2173.5 97.9742C2178.19 97.9742 2182.18 96.3801 2185.45 93.1919C2188.73 90.0037 2190.37 85.7528 2190.37 80.4391V75.1255C2185.23 76.3653 2181.16 77.2066 2178.15 77.6494C2168.41 79.0664 2163.54 83.0074 2163.54 89.4723ZM2142.02 91.3321C2142.02 84.0701 2144.81 78.048 2150.39 73.2657C2155.97 68.4834 2164.16 65.2952 2174.96 63.7011C2183.81 62.2841 2188.95 61.3542 2190.37 60.9114V56.7934C2190.37 53.5166 2189.22 51.1255 2186.91 49.6199C2184.7 48.0258 2181.78 47.2288 2178.15 47.2288C2169.83 47.2288 2162.65 50.5055 2156.63 57.059L2144.15 46.2989C2152.83 35.9373 2164.07 30.7565 2177.88 30.7565C2190.1 30.7565 2198.78 33.679 2203.91 39.524C2209.05 45.369 2211.62 53.6494 2211.62 64.3653V113.118H2191.03V104.882C2189.44 107.893 2186.78 110.417 2183.06 112.454C2179.34 114.491 2175.09 115.509 2170.31 115.509C2161.64 115.509 2154.73 113.295 2149.59 108.867C2144.55 104.351 2142.02 98.5055 2142.02 91.3321Z"/>
<path d="M2220.91 51.0812V33.1476H2232.34V10.4317H2253.32V33.1476H2269.92V51.0812H2253.32V86.2841C2253.32 92.1292 2255.89 95.0517 2261.02 95.0517H2270.06V113.118H2258.37C2241.01 113.118 2232.34 104.572 2232.34 87.4797V51.0812H2220.91Z"/>
<path d="M2278.02 72.8672C2278.02 59.8487 2281.65 49.5756 2288.91 42.048C2296.18 34.5203 2305.16 30.7565 2315.88 30.7565C2326.24 30.7565 2335 34.6531 2342.17 42.4465C2349.43 50.1513 2353.06 60.2915 2353.06 72.8672C2353.06 75.4354 2352.93 78.0037 2352.67 80.572H2299.54C2299.54 85.6199 2301.13 89.9151 2304.32 93.4576C2307.51 96.9114 2311.8 98.6384 2317.2 98.6384C2321.19 98.6384 2324.64 97.6642 2327.56 95.7159C2330.57 93.679 2332.83 91.1107 2334.34 88.0111L2352 94.2546C2349.34 100.188 2345.01 105.236 2338.99 109.399C2332.96 113.472 2325.48 115.509 2316.54 115.509C2305.3 115.509 2296.04 111.657 2288.78 103.952C2281.61 96.2472 2278.02 85.8856 2278.02 72.8672ZM2299.67 66.0923H2331.41C2331.41 60.9557 2330.04 56.572 2327.3 52.941C2324.64 49.2214 2320.83 47.3616 2315.88 47.3616C2310.83 47.3616 2306.84 49.2214 2303.92 52.941C2301.09 56.6605 2299.67 61.0443 2299.67 66.0923Z"/>
<path d="M2383.21 71.5387C2383.21 78.8893 2384.54 84.5129 2387.2 88.4096C2389.85 92.2177 2393.35 94.1218 2397.69 94.1218C2402.03 94.1218 2405.48 92.2177 2408.05 88.4096C2410.62 84.6015 2411.9 78.9779 2411.9 71.5387C2411.9 64.1882 2410.57 58.5646 2407.92 54.6679C2405.35 50.7712 2401.94 48.8229 2397.69 48.8229C2393.26 48.8229 2389.72 50.8155 2387.06 54.8007C2384.5 58.6974 2383.21 64.2768 2383.21 71.5387ZM2361.43 71.6716C2361.43 59.0959 2364.57 49.1328 2370.86 41.7823C2377.24 34.4317 2385.25 30.7565 2394.9 30.7565C2399.06 30.7565 2402.6 31.7306 2405.52 33.679C2408.45 35.6273 2410.57 37.7528 2411.9 40.0554V33.1476H2433.15V101.03C2433.15 116.085 2430.05 127.155 2423.85 134.24C2417.74 141.413 2408.45 145 2395.96 145C2382.06 145 2371.35 139.686 2363.82 129.059L2377.63 119.229C2382.5 125.162 2388.75 128.129 2396.36 128.129C2400.35 128.129 2403.8 126.668 2406.72 123.745C2409.73 120.823 2411.41 117.059 2411.77 112.454C2412.03 109.266 2412.17 106.697 2412.17 104.749C2410.57 106.875 2408.14 108.646 2404.86 110.063C2401.67 111.48 2398.57 112.188 2395.56 112.188C2385.47 112.188 2377.24 108.513 2370.86 101.162C2364.57 93.8118 2361.43 83.9816 2361.43 71.6716Z"/>
<path d="M2449.75 24.6458V2.85978H2471.13V24.6458H2449.75ZM2450.02 113.118V33.1476H2471V113.118H2450.02Z"/>
<path d="M2484.28 73.1328C2484.28 60.0258 2487.82 49.7085 2494.91 42.1808C2501.99 34.5646 2511.02 30.7565 2522 30.7565C2530.5 30.7565 2537.54 33.369 2543.12 38.5941C2548.7 43.8192 2552.15 49.6642 2553.48 56.1292L2535.55 61.0443C2534.66 57.7675 2533.11 54.9336 2530.9 52.5424C2528.69 50.0627 2525.85 48.8229 2522.4 48.8229C2517.09 48.8229 2513.06 51.1255 2510.31 55.7306C2507.57 60.3358 2506.2 66.1365 2506.2 73.1328C2506.2 81.0148 2507.7 87.0369 2510.71 91.1993C2513.81 95.3616 2517.71 97.4428 2522.4 97.4428C2526.3 97.4428 2529.57 96.1144 2532.23 93.4576C2534.89 90.8007 2536.61 87.7454 2537.41 84.2915L2555.34 89.0738C2553.83 95.9816 2549.98 102.137 2543.78 107.539C2537.59 112.852 2530.33 115.509 2522 115.509C2510.85 115.509 2501.77 111.657 2494.78 103.952C2487.78 96.2472 2484.28 85.9742 2484.28 73.1328Z"/>
<path d="M2595.45 58.6531C2595.45 41.3838 2600.01 27.6125 2609.13 17.3395C2618.34 7.06642 2630.16 1.92989 2644.59 1.92989C2654.24 1.92989 2662.56 4.58672 2669.56 9.90037C2676.55 15.1255 2681.69 21.7232 2684.96 29.6937L2665.97 35.8044C2663.49 31.3764 2660.62 27.7897 2657.34 25.0443C2654.06 22.2989 2649.77 20.9262 2644.46 20.9262C2636.4 20.9262 2629.98 24.3801 2625.2 31.2878C2620.51 38.107 2618.16 47.2288 2618.16 58.6531C2618.16 70.2546 2620.55 79.5092 2625.33 86.417C2630.11 93.2362 2636.49 96.6458 2644.46 96.6458C2649.77 96.6458 2654.51 94.9188 2658.67 91.4649C2662.92 88.0111 2665.93 83.8487 2667.7 78.9779L2687.62 85.2214C2686.56 87.8782 2685.27 90.4908 2683.77 93.059C2682.26 95.6273 2680.23 98.3284 2677.66 101.162C2675.18 103.908 2672.39 106.343 2669.29 108.469C2666.28 110.506 2662.61 112.188 2658.27 113.517C2654.02 114.845 2649.46 115.509 2644.59 115.509C2630.42 115.509 2618.69 110.461 2609.39 100.365C2600.1 90.2694 2595.45 76.3653 2595.45 58.6531Z"/>
<path d="M2715.91 73.1328C2715.91 81.9004 2717.55 88.1439 2720.82 91.8635C2724.1 95.583 2727.73 97.4428 2731.71 97.4428C2733.4 97.4428 2735.04 97.0886 2736.63 96.3801C2738.31 95.583 2739.99 94.3875 2741.68 92.7934C2743.36 91.1107 2744.73 88.5867 2745.79 85.2214C2746.86 81.7675 2747.39 77.738 2747.39 73.1328C2747.39 68.4391 2746.86 64.4096 2745.79 61.0443C2744.82 57.679 2743.45 55.155 2741.68 53.4723C2739.99 51.7897 2738.31 50.5941 2736.63 49.8856C2735.04 49.1771 2733.4 48.8229 2731.71 48.8229C2727.73 48.8229 2724.1 50.6827 2720.82 54.4022C2717.55 58.0332 2715.91 64.2768 2715.91 73.1328ZM2694.13 73.1328C2694.13 67.6421 2694.84 62.4613 2696.25 57.5904C2697.67 52.631 2699.8 48.1144 2702.63 44.0406C2705.55 39.9668 2709.49 36.7343 2714.45 34.3432C2719.5 31.952 2725.25 30.7565 2731.71 30.7565C2738.18 30.7565 2743.89 31.952 2748.85 34.3432C2753.81 36.7343 2757.7 39.9668 2760.54 44.0406C2763.46 48.1144 2765.63 52.631 2767.04 57.5904C2768.46 62.4613 2769.17 67.6421 2769.17 73.1328C2769.17 76.6753 2768.86 80.2177 2768.24 83.7601C2767.62 87.214 2766.42 90.9336 2764.65 94.9188C2762.97 98.8155 2760.8 102.269 2758.14 105.28C2755.49 108.203 2751.86 110.638 2747.25 112.587C2742.74 114.535 2737.56 115.509 2731.71 115.509C2725.96 115.509 2720.82 114.579 2716.31 112.72C2711.79 110.86 2708.16 108.513 2705.42 105.679C2702.67 102.756 2700.42 99.3911 2698.64 95.583C2696.96 91.6863 2695.77 87.9225 2695.06 84.2915C2694.44 80.6605 2694.13 76.941 2694.13 73.1328Z"/>
<path d="M2781.39 113.118V33.1476H2801.71V40.9852H2801.84C2806.18 34.1661 2812.95 30.7565 2822.16 30.7565C2839.78 30.7565 2848.59 41.1181 2848.59 61.8413V113.118H2827.47V64.3653C2827.47 58.6974 2826.68 54.7122 2825.08 52.4096C2823.49 50.0185 2820.97 48.8229 2817.51 48.8229C2813.09 48.8229 2809.5 50.6384 2806.75 54.2694C2804.01 57.8118 2802.64 62.2841 2802.64 67.6863V113.118H2781.39Z"/>
<path d="M2858.42 95.8487L2873.29 87.0812C2878.69 94.6974 2885.47 98.5055 2893.61 98.5055C2896.98 98.5055 2899.59 97.797 2901.45 96.3801C2903.4 94.8745 2904.37 93.059 2904.37 90.9336C2904.37 90.2251 2904.24 89.5166 2903.97 88.8081C2903.8 88.0996 2903.44 87.4797 2902.91 86.9483C2902.47 86.3284 2901.98 85.797 2901.45 85.3542C2900.92 84.9114 2900.17 84.4686 2899.19 84.0258C2898.31 83.4945 2897.51 83.0959 2896.8 82.8303C2896.09 82.476 2895.12 82.0775 2893.88 81.6347C2892.73 81.1919 2891.75 80.8819 2890.96 80.7048C2890.16 80.4391 2889.05 80.0849 2887.64 79.6421C2886.22 79.1993 2885.16 78.845 2884.45 78.5793C2877.72 76.3653 2872.32 73.4871 2868.25 69.9447C2864.26 66.4022 2862.27 61.2214 2862.27 54.4022C2862.27 47.1402 2865.37 41.3838 2871.57 37.1328C2877.85 32.8819 2885.25 30.7565 2893.75 30.7565C2900.39 30.7565 2906.72 32.5277 2912.74 36.0701C2918.85 39.524 2923.41 44.0849 2926.42 49.7528L2912.47 57.9889C2906.81 51.1697 2900.65 47.7601 2894.01 47.7601C2890.83 47.7601 2888.3 48.4244 2886.44 49.7528C2884.67 51.0812 2883.79 52.7638 2883.79 54.8007C2883.79 55.7749 2883.96 56.7048 2884.32 57.5904C2884.67 58.3875 2885.25 59.1402 2886.04 59.8487C2886.93 60.5572 2887.73 61.1771 2888.43 61.7085C2889.23 62.2399 2890.34 62.7712 2891.75 63.3026C2893.26 63.8339 2894.41 64.2768 2895.21 64.631C2896.09 64.8967 2897.47 65.3395 2899.33 65.9594C2901.18 66.4908 2902.51 66.8893 2903.31 67.155C2918.54 72.2915 2926.15 80.3063 2926.15 91.1993C2926.15 97.9299 2923.41 103.686 2917.92 108.469C2912.43 113.162 2904.55 115.509 2894.28 115.509C2886.22 115.509 2879 113.738 2872.63 110.196C2866.34 106.565 2861.61 101.782 2858.42 95.8487Z"/>
<path d="M2936.91 83.6273V33.1476H2958.16V81.369C2958.16 92.0849 2961.75 97.4428 2968.92 97.4428C2973.17 97.4428 2976.49 95.4945 2978.88 91.5978C2981.36 87.6125 2982.6 82.9188 2982.6 77.5166V33.1476H3003.85V113.118H2983.53V105.945H2983.13C2981.63 108.601 2979.19 110.86 2975.83 112.72C2972.46 114.579 2968.61 115.509 2964.27 115.509C2961.97 115.509 2959.71 115.288 2957.5 114.845C2955.37 114.491 2952.98 113.649 2950.33 112.321C2947.76 110.904 2945.5 109.089 2943.55 106.875C2941.69 104.661 2940.1 101.561 2938.77 97.5756C2937.53 93.5018 2936.91 88.8524 2936.91 83.6273Z"/>
<path d="M3021.65 113.118V1H3042.9V113.118H3021.65Z"/>
<path d="M3054.58 51.0812V33.1476H3066.01V10.4317H3086.99V33.1476H3103.59V51.0812H3086.99V86.2841C3086.99 92.1292 3089.56 95.0517 3094.69 95.0517H3103.73V113.118H3092.04C3074.68 113.118 3066.01 104.572 3066.01 87.4797V51.0812H3054.58Z"/>
<path d="M3116.61 24.6458V2.85978H3137.99V24.6458H3116.61ZM3116.87 113.118V33.1476H3137.86V113.118H3116.87Z"/>
<path d="M3155.26 113.118V33.1476H3175.58V40.9852H3175.71C3180.05 34.1661 3186.82 30.7565 3196.03 30.7565C3213.65 30.7565 3222.46 41.1181 3222.46 61.8413V113.118H3201.34V64.3653C3201.34 58.6974 3200.55 54.7122 3198.95 52.4096C3197.36 50.0185 3194.84 48.8229 3191.38 48.8229C3186.95 48.8229 3183.37 50.6384 3180.62 54.2694C3177.88 57.8118 3176.51 62.2841 3176.51 67.6863V113.118H3155.26Z"/>
<path d="M3256.06 71.5387C3256.06 78.8893 3257.39 84.5129 3260.05 88.4096C3262.7 92.2177 3266.2 94.1218 3270.54 94.1218C3274.88 94.1218 3278.33 92.2177 3280.9 88.4096C3283.47 84.6015 3284.75 78.9779 3284.75 71.5387C3284.75 64.1882 3283.42 58.5646 3280.77 54.6679C3278.2 50.7712 3274.79 48.8229 3270.54 48.8229C3266.11 48.8229 3262.57 50.8155 3259.91 54.8007C3257.35 58.6974 3256.06 64.2768 3256.06 71.5387ZM3234.28 71.6716C3234.28 59.0959 3237.42 49.1328 3243.71 41.7823C3250.09 34.4317 3258.1 30.7565 3267.75 30.7565C3271.91 30.7565 3275.45 31.7306 3278.37 33.679C3281.3 35.6273 3283.42 37.7528 3284.75 40.0554V33.1476H3306V101.03C3306 116.085 3302.9 127.155 3296.7 134.24C3290.59 141.413 3281.3 145 3268.81 145C3254.91 145 3244.2 139.686 3236.67 129.059L3250.48 119.229C3255.35 125.162 3261.6 128.129 3269.21 128.129C3273.2 128.129 3276.65 126.668 3279.57 123.745C3282.58 120.823 3284.26 117.059 3284.62 112.454C3284.88 109.266 3285.02 106.697 3285.02 104.749C3283.42 106.875 3280.99 108.646 3277.71 110.063C3274.52 111.48 3271.42 112.188 3268.41 112.188C3258.32 112.188 3250.09 108.513 3243.71 101.162C3237.42 93.8118 3234.28 83.9816 3234.28 71.6716Z"/>
</mask>
<path d="M2 88.2768L21.1251 81.7675C23.4272 86.0185 26.9247 89.5609 31.6174 92.3948C36.3987 95.2288 41.3571 96.6458 46.4925 96.6458C51.5394 96.6458 55.5681 95.4502 58.5785 93.059C61.6775 90.5793 63.227 87.4797 63.227 83.7601C63.227 79.5092 61.5004 76.1439 58.0473 73.6642C54.5941 71.0959 49.5029 68.6605 42.7737 66.3579C32.3257 62.9041 25.3309 60.2472 21.7892 58.3875C11.2527 52.631 5.9844 44.1292 5.9844 32.8819C5.9844 23.6716 9.65891 16.2325 17.0079 10.5646C24.3569 4.80812 33.7867 1.92989 45.2972 1.92989C55.2139 1.92989 63.5812 4.27675 70.3989 8.97048C77.3052 13.5756 82.3964 19.5535 85.6725 26.9041L67.0786 33.0148C61.2348 24.9557 53.9301 20.9262 45.1644 20.9262C40.1175 20.9262 36.1331 22.0332 33.2112 24.2472C30.2893 26.3727 28.8283 29.2066 28.8283 32.7491C28.8283 34.2546 29.0497 35.6273 29.4924 36.8672C29.9351 38.107 30.7762 39.2583 32.0158 40.321C33.344 41.3838 34.4508 42.2694 35.3362 42.9779C36.3101 43.6863 37.9039 44.4834 40.1175 45.369C42.4196 46.2546 44.1019 46.9188 45.1644 47.3616C46.3154 47.7159 48.3519 48.3358 51.2738 49.2214C54.2842 50.107 56.2764 50.7269 57.2504 51.0812C61.2348 52.4096 64.7765 53.8708 67.8755 55.4649C71.063 57.059 74.1177 59.0959 77.0396 61.5756C79.9615 63.9668 82.2193 66.9779 83.8131 70.6089C85.4068 74.2399 86.2037 78.3137 86.2037 82.8303C86.2037 93.1919 82.3521 101.251 74.649 107.007C67.0343 112.675 57.4717 115.509 45.9612 115.509C35.956 115.509 27.0132 113.074 19.1329 108.203C11.2527 103.332 5.54169 96.69 2 88.2768Z" stroke="#767676" stroke-width="2" mask="url(#path-1-outside-1)"/>
<path d="M115.423 73.1328C115.423 81.9004 117.061 88.1439 120.337 91.8635C123.613 95.583 127.243 97.4428 131.227 97.4428C132.91 97.4428 134.548 97.0886 136.142 96.3801C137.824 95.583 139.506 94.3875 141.188 92.7934C142.871 91.1107 144.243 88.5867 145.306 85.2214C146.368 81.7675 146.899 77.738 146.899 73.1328C146.899 68.4391 146.368 64.4096 145.306 61.0443C144.332 57.679 142.959 55.155 141.188 53.4723C139.506 51.7897 137.824 50.5941 136.142 49.8856C134.548 49.1771 132.91 48.8229 131.227 48.8229C127.243 48.8229 123.613 50.6827 120.337 54.4022C117.061 58.0332 115.423 64.2768 115.423 73.1328ZM93.6413 73.1328C93.6413 67.6421 94.3496 62.4613 95.7663 57.5904C97.183 52.631 99.308 48.1144 102.141 44.0406C105.063 39.9668 109.003 36.7343 113.962 34.3432C119.009 31.952 124.764 30.7565 131.227 30.7565C137.691 30.7565 143.402 31.952 148.36 34.3432C153.319 36.7343 157.215 39.9668 160.048 44.0406C162.97 48.1144 165.139 52.631 166.556 57.5904C167.973 62.4613 168.681 67.6421 168.681 73.1328C168.681 76.6753 168.371 80.2177 167.751 83.7601C167.131 87.214 165.936 90.9336 164.165 94.9188C162.483 98.8155 160.314 102.269 157.657 105.28C155.001 108.203 151.371 110.638 146.767 112.587C142.251 114.535 137.071 115.509 131.227 115.509C125.472 115.509 120.337 114.579 115.821 112.72C111.305 110.86 107.675 108.513 104.93 105.679C102.186 102.756 99.9278 99.3911 98.1569 95.583C96.4746 91.6863 95.2793 87.9225 94.571 84.2915C93.9512 80.6605 93.6413 76.941 93.6413 73.1328Z" stroke="#767676" stroke-width="2" mask="url(#path-1-outside-1)"/>
<path d="M176.782 73.1328C176.782 60.0258 180.324 49.7085 187.408 42.1808C194.491 34.5646 203.522 30.7565 214.502 30.7565C223.002 30.7565 230.041 33.369 235.619 38.5941C241.197 43.8192 244.65 49.6642 245.978 56.1292L228.048 61.0443C227.163 57.7675 225.614 54.9336 223.4 52.5424C221.186 50.0627 218.353 48.8229 214.9 48.8229C209.587 48.8229 205.559 51.1255 202.814 55.7306C200.069 60.3358 198.697 66.1365 198.697 73.1328C198.697 81.0148 200.202 87.0369 203.212 91.1993C206.311 95.3616 210.207 97.4428 214.9 97.4428C218.796 97.4428 222.072 96.1144 224.728 93.4576C227.384 90.8007 229.111 87.7454 229.908 84.2915L247.838 89.0738C246.332 95.9816 242.481 102.137 236.283 107.539C230.085 112.852 222.824 115.509 214.502 115.509C203.345 115.509 194.27 111.657 187.275 103.952C180.28 96.2472 176.782 85.9742 176.782 73.1328Z" stroke="#767676" stroke-width="2" mask="url(#path-1-outside-1)"/>
<path d="M258.994 24.6458V2.85978H280.377V24.6458H258.994ZM259.26 113.118V33.1476H280.244V113.118H259.26Z" stroke="#767676" stroke-width="2" mask="url(#path-1-outside-1)"/>
<path d="M314.908 89.4723C314.908 91.8635 315.838 93.9004 317.698 95.583C319.557 97.1771 321.948 97.9742 324.869 97.9742C329.562 97.9742 333.547 96.3801 336.823 93.1919C340.099 90.0037 341.737 85.7528 341.737 80.4391V75.1255C336.601 76.3653 332.528 77.2066 329.518 77.6494C319.778 79.0664 314.908 83.0074 314.908 89.4723ZM293.393 91.3321C293.393 84.0701 296.182 78.048 301.76 73.2657C307.338 68.4834 315.528 65.2952 326.33 63.7011C335.185 62.2841 340.32 61.3542 341.737 60.9114V56.7934C341.737 53.5166 340.586 51.1255 338.284 49.6199C336.07 48.0258 333.148 47.2288 329.518 47.2288C321.195 47.2288 314.023 50.5055 308.002 57.059L295.518 46.2989C304.195 35.9373 315.44 30.7565 329.252 30.7565C341.471 30.7565 350.148 33.679 355.284 39.524C360.419 45.369 362.987 53.6494 362.987 64.3653V113.118H342.401V104.882C340.807 107.893 338.151 110.417 334.432 112.454C330.713 114.491 326.463 115.509 321.682 115.509C313.005 115.509 306.099 113.295 300.963 108.867C295.916 104.351 293.393 98.5055 293.393 91.3321Z" stroke="#767676" stroke-width="2" mask="url(#path-1-outside-1)"/>
<path d="M379.589 113.118V1H400.839V113.118H379.589Z" stroke="#767676" stroke-width="2" mask="url(#path-1-outside-1)"/>
<path d="M453.964 113.118V4.32103H480.527L496.597 50.1513C497.837 53.7823 499.431 58.8303 501.379 65.2952C503.326 71.6716 504.655 75.9668 505.363 78.1808H505.894C510.675 63.5683 513.774 54.2251 515.191 50.1513L530.863 4.32103H557.559V113.118H535.644V71.1402C535.644 64.2325 536.441 52.8967 538.035 37.1328H537.371L528.074 65.5609L513.465 108.07H498.058L483.582 65.5609L474.152 36.8672H473.355C474.949 49.8856 475.746 61.31 475.746 71.1402V113.118H453.964Z" stroke="#767676" stroke-width="2" mask="url(#path-1-outside-1)"/>
<path d="M572.035 72.8672C572.035 59.8487 575.666 49.5756 582.926 42.048C590.186 34.5203 599.174 30.7565 609.887 30.7565C620.247 30.7565 629.012 34.6531 636.184 42.4465C643.445 50.1513 647.075 60.2915 647.075 72.8672C647.075 75.4354 646.942 78.0037 646.676 80.572H593.551C593.551 85.6199 595.145 89.9151 598.332 93.4576C601.52 96.9114 605.814 98.6384 611.215 98.6384C615.2 98.6384 618.653 97.6642 621.575 95.7159C624.585 93.679 626.843 91.1107 628.348 88.0111L646.012 94.2546C643.356 100.188 639.018 105.236 632.997 109.399C626.976 113.472 619.494 115.509 610.551 115.509C599.306 115.509 590.054 111.657 582.793 103.952C575.621 96.2472 572.035 85.8856 572.035 72.8672ZM593.684 66.0923H625.426C625.426 60.9557 624.054 56.572 621.309 52.941C618.653 49.2214 614.845 47.3616 609.887 47.3616C604.84 47.3616 600.856 49.2214 597.934 52.941C595.101 56.6605 593.684 61.0443 593.684 66.0923Z" stroke="#767676" stroke-width="2" mask="url(#path-1-outside-1)"/>
<path d="M654.911 73C654.911 59.8044 658.098 49.4871 664.473 42.048C670.937 34.5203 679.216 30.7565 689.31 30.7565C696.747 30.7565 702.724 33.5018 707.239 38.9926V1H728.357V113.118H707.771V105.148C706.177 107.893 703.653 110.328 700.2 112.454C696.747 114.491 693.073 115.509 689.177 115.509C684.927 115.509 680.81 114.712 676.825 113.118C672.929 111.524 669.299 109.133 665.934 105.945C662.57 102.756 659.869 98.3284 657.833 92.6605C655.885 86.9926 654.911 80.4391 654.911 73ZM676.692 73C676.692 80.8819 678.065 86.9483 680.81 91.1993C683.643 95.3616 687.45 97.4428 692.231 97.4428C696.924 97.4428 700.599 95.2731 703.255 90.9336C706 86.5941 707.372 80.6162 707.372 73C707.372 65.738 706.088 59.893 703.521 55.4649C700.953 51.0369 697.19 48.8229 692.231 48.8229C687.096 48.8229 683.2 51.0369 680.544 55.4649C677.976 59.8044 676.692 65.6494 676.692 73Z" stroke="#767676" stroke-width="2" mask="url(#path-1-outside-1)"/>
<path d="M746.287 24.6458V2.85978H767.67V24.6458H746.287ZM746.552 113.118V33.1476H767.537V113.118H746.552Z" stroke="#767676" stroke-width="2" mask="url(#path-1-outside-1)"/>
<path d="M802.201 89.4723C802.201 91.8635 803.131 93.9004 804.99 95.583C806.849 97.1771 809.24 97.9742 812.162 97.9742C816.855 97.9742 820.839 96.3801 824.115 93.1919C827.391 90.0037 829.029 85.7528 829.029 80.4391V75.1255C823.894 76.3653 819.821 77.2066 816.81 77.6494C807.071 79.0664 802.201 83.0074 802.201 89.4723ZM780.685 91.3321C780.685 84.0701 783.474 78.048 789.052 73.2657C794.631 68.4834 802.821 65.2952 813.623 63.7011C822.477 62.2841 827.613 61.3542 829.029 60.9114V56.7934C829.029 53.5166 827.878 51.1255 825.576 49.6199C823.363 48.0258 820.441 47.2288 816.81 47.2288C808.487 47.2288 801.316 50.5055 795.295 57.059L782.81 46.2989C791.487 35.9373 802.732 30.7565 816.545 30.7565C828.764 30.7565 837.441 33.679 842.576 39.524C847.712 45.369 850.279 53.6494 850.279 64.3653V113.118H829.693V104.882C828.1 107.893 825.443 110.417 821.725 112.454C818.006 114.491 813.756 115.509 808.974 115.509C800.297 115.509 793.391 113.295 788.256 108.867C783.209 104.351 780.685 98.5055 780.685 91.3321Z" stroke="#767676" stroke-width="2" mask="url(#path-1-outside-1)"/>
<path d="M901.014 113.118V4.32103H927.577L943.647 50.1513C944.887 53.7823 946.481 58.8303 948.429 65.2952C950.377 71.6716 951.705 75.9668 952.413 78.1808H952.944C957.726 63.5683 960.825 54.2251 962.241 50.1513L977.913 4.32103H1004.61V113.118H982.694V71.1402C982.694 64.2325 983.491 52.8967 985.085 37.1328H984.421L975.124 65.5609L960.515 108.07H945.108L930.632 65.5609L921.202 36.8672H920.405C921.999 49.8856 922.796 61.31 922.796 71.1402V113.118H901.014Z" stroke="#767676" stroke-width="2" mask="url(#path-1-outside-1)"/>
<path d="M1040.47 89.4723C1040.47 91.8635 1041.4 93.9004 1043.26 95.583C1045.12 97.1771 1047.51 97.9742 1050.43 97.9742C1055.12 97.9742 1059.11 96.3801 1062.38 93.1919C1065.66 90.0037 1067.3 85.7528 1067.3 80.4391V75.1255C1062.16 76.3653 1058.09 77.2066 1055.08 77.6494C1045.34 79.0664 1040.47 83.0074 1040.47 89.4723ZM1018.95 91.3321C1018.95 84.0701 1021.74 78.048 1027.32 73.2657C1032.9 68.4834 1041.09 65.2952 1051.89 63.7011C1060.74 62.2841 1065.88 61.3542 1067.3 60.9114V56.7934C1067.3 53.5166 1066.15 51.1255 1063.84 49.6199C1061.63 48.0258 1058.71 47.2288 1055.08 47.2288C1046.75 47.2288 1039.58 50.5055 1033.56 57.059L1021.08 46.2989C1029.75 35.9373 1041 30.7565 1054.81 30.7565C1067.03 30.7565 1075.71 33.679 1080.84 39.524C1085.98 45.369 1088.55 53.6494 1088.55 64.3653V113.118H1067.96V104.882C1066.37 107.893 1063.71 110.417 1059.99 112.454C1056.27 114.491 1052.02 115.509 1047.24 115.509C1038.56 115.509 1031.66 113.295 1026.52 108.867C1021.48 104.351 1018.95 98.5055 1018.95 91.3321Z" stroke="#767676" stroke-width="2" mask="url(#path-1-outside-1)"/>
<path d="M1103.82 113.118V33.1476H1124.14V40.9852H1124.27C1128.61 34.1661 1135.39 30.7565 1144.59 30.7565C1162.21 30.7565 1171.02 41.1181 1171.02 61.8413V113.118H1149.91V64.3653C1149.91 58.6974 1149.11 54.7122 1147.52 52.4096C1145.92 50.0185 1143.4 48.8229 1139.95 48.8229C1135.52 48.8229 1131.93 50.6384 1129.19 54.2694C1126.44 57.8118 1125.07 62.2841 1125.07 67.6863V113.118H1103.82Z" stroke="#767676" stroke-width="2" mask="url(#path-1-outside-1)"/>
<path d="M1203.7 89.4723C1203.7 91.8635 1204.63 93.9004 1206.49 95.583C1208.34 97.1771 1210.74 97.9742 1213.66 97.9742C1218.35 97.9742 1222.33 96.3801 1225.61 93.1919C1228.89 90.0037 1230.52 85.7528 1230.52 80.4391V75.1255C1225.39 76.3653 1221.32 77.2066 1218.31 77.6494C1208.57 79.0664 1203.7 83.0074 1203.7 89.4723ZM1182.18 91.3321C1182.18 84.0701 1184.97 78.048 1190.55 73.2657C1196.13 68.4834 1204.32 65.2952 1215.12 63.7011C1223.97 62.2841 1229.11 61.3542 1230.52 60.9114V56.7934C1230.52 53.5166 1229.37 51.1255 1227.07 49.6199C1224.86 48.0258 1221.94 47.2288 1218.31 47.2288C1209.98 47.2288 1202.81 50.5055 1196.79 57.059L1184.31 46.2989C1192.98 35.9373 1204.23 30.7565 1218.04 30.7565C1230.26 30.7565 1238.94 33.679 1244.07 39.524C1249.21 45.369 1251.77 53.6494 1251.77 64.3653V113.118H1231.19V104.882C1229.59 107.893 1226.94 110.417 1223.22 112.454C1219.5 114.491 1215.25 115.509 1210.47 115.509C1201.79 115.509 1194.89 113.295 1189.75 108.867C1184.7 104.351 1182.18 98.5055 1182.18 91.3321Z" stroke="#767676" stroke-width="2" mask="url(#path-1-outside-1)"/>
<path d="M1285.24 71.5387C1285.24 78.8893 1286.57 84.5129 1289.23 88.4096C1291.88 92.2177 1295.38 94.1218 1299.72 94.1218C1304.06 94.1218 1307.51 92.2177 1310.08 88.4096C1312.65 84.6015 1313.93 78.9779 1313.93 71.5387C1313.93 64.1882 1312.6 58.5646 1309.95 54.6679C1307.38 50.7712 1303.97 48.8229 1299.72 48.8229C1295.29 48.8229 1291.75 50.8155 1289.1 54.8007C1286.53 58.6974 1285.24 64.2768 1285.24 71.5387ZM1263.46 71.6716C1263.46 59.0959 1266.61 49.1328 1272.89 41.7823C1279.27 34.4317 1287.28 30.7565 1296.93 30.7565C1301.09 30.7565 1304.63 31.7306 1307.56 33.679C1310.48 35.6273 1312.6 37.7528 1313.93 40.0554V33.1476H1335.18V101.03C1335.18 116.085 1332.08 127.155 1325.88 134.24C1319.77 141.413 1310.48 145 1297.99 145C1284.09 145 1273.38 139.686 1265.85 129.059L1279.67 119.229C1284.54 125.162 1290.78 128.129 1298.39 128.129C1302.38 128.129 1305.83 126.668 1308.75 123.745C1311.76 120.823 1313.44 117.059 1313.8 112.454C1314.06 109.266 1314.2 106.697 1314.2 104.749C1312.6 106.875 1310.17 108.646 1306.89 110.063C1303.7 111.48 1300.61 112.188 1297.6 112.188C1287.5 112.188 1279.27 108.513 1272.89 101.162C1266.61 93.8118 1263.46 83.9816 1263.46 71.6716Z" stroke="#767676" stroke-width="2" mask="url(#path-1-outside-1)"/>
<path d="M1346.87 72.8672C1346.87 59.8487 1350.5 49.5756 1357.76 42.048C1365.02 34.5203 1374.01 30.7565 1384.72 30.7565C1395.08 30.7565 1403.85 34.6531 1411.02 42.4465C1418.28 50.1513 1421.91 60.2915 1421.91 72.8672C1421.91 75.4354 1421.78 78.0037 1421.51 80.572H1368.38C1368.38 85.6199 1369.98 89.9151 1373.17 93.4576C1376.35 96.9114 1380.65 98.6384 1386.05 98.6384C1390.03 98.6384 1393.49 97.6642 1396.41 95.7159C1399.42 93.679 1401.68 91.1107 1403.18 88.0111L1420.85 94.2546C1418.19 100.188 1413.85 105.236 1407.83 109.399C1401.81 113.472 1394.33 115.509 1385.38 115.509C1374.14 115.509 1364.89 111.657 1357.63 103.952C1350.45 96.2472 1346.87 85.8856 1346.87 72.8672ZM1368.52 66.0923H1400.26C1400.26 60.9557 1398.89 56.572 1396.14 52.941C1393.49 49.2214 1389.68 47.3616 1384.72 47.3616C1379.67 47.3616 1375.69 49.2214 1372.77 52.941C1369.93 56.6605 1368.52 61.0443 1368.52 66.0923Z" stroke="#767676" stroke-width="2" mask="url(#path-1-outside-1)"/>
<path d="M1433.86 113.118V33.1476H1454.18V40.7196H1454.32C1455.2 39.4797 1456.31 38.2399 1457.64 37C1459.05 35.6716 1461.27 34.2989 1464.28 32.8819C1467.29 31.4649 1470.39 30.7565 1473.57 30.7565C1481.9 30.7565 1488.14 34.7417 1492.3 42.7122C1497.35 34.7417 1505.05 30.7565 1515.41 30.7565C1520.19 30.7565 1524.26 31.5978 1527.63 33.2804C1531.08 34.9631 1533.74 37.3542 1535.6 40.4539C1537.46 43.4649 1538.78 46.7417 1539.58 50.2841C1540.38 53.738 1540.78 57.5904 1540.78 61.8413V113.118H1519.53V62.2399C1519.53 57.7232 1518.86 54.3579 1517.53 52.1439C1516.21 49.9299 1513.99 48.8229 1510.89 48.8229C1506.82 48.8229 1503.59 50.5498 1501.2 54.0037C1498.9 57.369 1497.74 61.3985 1497.74 66.0923V113.118H1476.76V61.7085C1476.76 57.7232 1476.01 54.5793 1474.5 52.2768C1473.09 49.9742 1470.96 48.8229 1468.13 48.8229C1463.79 48.8229 1460.51 50.417 1458.3 53.6052C1456.17 56.7048 1455.11 60.8672 1455.11 66.0923V113.118H1433.86Z" stroke="#767676" stroke-width="2" mask="url(#path-1-outside-1)"/>
<path d="M1551.93 72.8672C1551.93 59.8487 1555.56 49.5756 1562.82 42.048C1570.08 34.5203 1579.07 30.7565 1589.78 30.7565C1600.14 30.7565 1608.91 34.6531 1616.08 42.4465C1623.34 50.1513 1626.97 60.2915 1626.97 72.8672C1626.97 75.4354 1626.84 78.0037 1626.57 80.572H1573.45C1573.45 85.6199 1575.04 89.9151 1578.23 93.4576C1581.42 96.9114 1585.71 98.6384 1591.11 98.6384C1595.1 98.6384 1598.55 97.6642 1601.47 95.7159C1604.48 93.679 1606.74 91.1107 1608.25 88.0111L1625.91 94.2546C1623.25 100.188 1618.92 105.236 1612.89 109.399C1606.87 113.472 1599.39 115.509 1590.45 115.509C1579.2 115.509 1569.95 111.657 1562.69 103.952C1555.52 96.2472 1551.93 85.8856 1551.93 72.8672ZM1573.58 66.0923H1605.32C1605.32 60.9557 1603.95 56.572 1601.21 52.941C1598.55 49.2214 1594.74 47.3616 1589.78 47.3616C1584.74 47.3616 1580.75 49.2214 1577.83 52.941C1575 56.6605 1573.58 61.0443 1573.58 66.0923Z" stroke="#767676" stroke-width="2" mask="url(#path-1-outside-1)"/>
<path d="M1638.93 113.118V33.1476H1659.25V40.9852H1659.38C1663.72 34.1661 1670.49 30.7565 1679.7 30.7565C1697.32 30.7565 1706.13 41.1181 1706.13 61.8413V113.118H1685.01V64.3653C1685.01 58.6974 1684.22 54.7122 1682.62 52.4096C1681.03 50.0185 1678.5 48.8229 1675.05 48.8229C1670.62 48.8229 1667.04 50.6384 1664.29 54.2694C1661.55 57.8118 1660.18 62.2841 1660.18 67.6863V113.118H1638.93Z" stroke="#767676" stroke-width="2" mask="url(#path-1-outside-1)"/>
<path d="M1714.89 51.0812V33.1476H1726.32V10.4317H1747.3V33.1476H1763.9V51.0812H1747.3V86.2841C1747.3 92.1292 1749.87 95.0517 1755 95.0517H1764.04V113.118H1752.35C1734.99 113.118 1726.32 104.572 1726.32 87.4797V51.0812H1714.89Z" stroke="#767676" stroke-width="2" mask="url(#path-1-outside-1)"/>
<path d="M1828.58 83.0959C1828.58 87.524 1830 91.0664 1832.83 93.7232C1835.67 96.2915 1839.34 97.5756 1843.86 97.5756C1849.61 97.5756 1854.92 95.2731 1859.79 90.6679L1838.94 64.0996C1832.04 69.9447 1828.58 76.2768 1828.58 83.0959ZM1806.67 83.4945C1806.67 70.476 1814.02 59.0959 1828.72 49.3542C1822.78 42.0037 1819.82 35.7159 1819.82 30.4908C1819.82 22.6089 1822.56 16.4096 1828.05 11.893C1833.54 7.37638 1840.85 5.11808 1849.97 5.11808C1858.11 5.11808 1864.97 7.19926 1870.55 11.3616C1876.22 15.524 1880.2 20.6162 1882.51 26.6384L1866.97 33.4133C1862.8 26.5055 1857.8 23.0517 1851.96 23.0517C1845.14 23.0517 1841.73 25.7528 1841.73 31.155C1841.73 32.3063 1842.13 33.7675 1842.93 35.5387C1843.81 37.31 1845.27 39.6568 1847.31 42.5793C1849.43 45.5018 1851.38 48.1144 1853.15 50.417C1854.92 52.7196 1857.67 56.262 1861.39 61.0443C1865.2 65.738 1868.21 69.5018 1870.42 72.3358C1871.84 68.3506 1873.03 63.2583 1874.01 57.059L1893.26 60.5129C1892.38 66.4465 1890.96 72.0701 1889.01 77.3838C1887.07 82.6089 1885.21 86.6384 1883.44 89.4723L1902.43 113.118H1876.79L1871.22 106.077C1863.07 112.454 1853.95 115.642 1843.86 115.642C1832.17 115.642 1823.05 112.542 1816.5 106.343C1809.95 100.055 1806.67 92.4391 1806.67 83.4945Z" stroke="#767676" stroke-width="2" mask="url(#path-1-outside-1)"/>
<path d="M1940.01 88.2768L1959.14 81.7675C1961.44 86.0185 1964.94 89.5609 1969.63 92.3948C1974.41 95.2288 1979.37 96.6458 1984.51 96.6458C1989.55 96.6458 1993.58 95.4502 1996.59 93.059C1999.69 90.5793 2001.24 87.4797 2001.24 83.7601C2001.24 79.5092 1999.51 76.1439 1996.06 73.6642C1992.61 71.0959 1987.52 68.6605 1980.79 66.3579C1970.34 62.9041 1963.34 60.2472 1959.8 58.3875C1949.27 52.631 1944 44.1292 1944 32.8819C1944 23.6716 1947.67 16.2325 1955.02 10.5646C1962.37 4.80812 1971.8 1.92989 1983.31 1.92989C1993.23 1.92989 2001.59 4.27675 2008.41 8.97048C2015.32 13.5756 2020.41 19.5535 2023.69 26.9041L2005.09 33.0148C1999.25 24.9557 1991.94 20.9262 1983.18 20.9262C1978.13 20.9262 1974.15 22.0332 1971.22 24.2472C1968.3 26.3727 1966.84 29.2066 1966.84 32.7491C1966.84 34.2546 1967.06 35.6273 1967.51 36.8672C1967.95 38.107 1968.79 39.2583 1970.03 40.321C1971.36 41.3838 1972.46 42.2694 1973.35 42.9779C1974.32 43.6863 1975.92 44.4834 1978.13 45.369C1980.43 46.2546 1982.12 46.9188 1983.18 47.3616C1984.33 47.7159 1986.37 48.3358 1989.29 49.2214C1992.3 50.107 1994.29 50.7269 1995.26 51.0812C1999.25 52.4096 2002.79 53.8708 2005.89 55.4649C2009.08 57.059 2012.13 59.0959 2015.05 61.5756C2017.98 63.9668 2020.23 66.9779 2021.83 70.6089C2023.42 74.2399 2024.22 78.3137 2024.22 82.8303C2024.22 93.1919 2020.37 101.251 2012.66 107.007C2005.05 112.675 1995.49 115.509 1983.98 115.509C1973.97 115.509 1965.03 113.074 1957.15 108.203C1949.27 103.332 1943.56 96.69 1940.01 88.2768Z" stroke="#767676" stroke-width="2" mask="url(#path-1-outside-1)"/>
<path d="M2029.8 51.0812V33.1476H2041.22V10.4317H2062.2V33.1476H2078.8V51.0812H2062.2V86.2841C2062.2 92.1292 2064.77 95.0517 2069.91 95.0517H2078.94V113.118H2067.25C2049.89 113.118 2041.22 104.572 2041.22 87.4797V51.0812H2029.8Z" stroke="#767676" stroke-width="2" mask="url(#path-1-outside-1)"/>
<path d="M2091.02 113.118V33.1476H2111.34V39.9225C2113.03 37.4428 2115.42 35.3173 2118.52 33.5461C2121.7 31.6863 2125.24 30.7565 2129.14 30.7565C2133.74 30.7565 2137.02 31.2435 2138.97 32.2177V51.6125C2135.87 50.6384 2132.59 50.1513 2129.14 50.1513C2123.47 50.1513 2119.22 52.3653 2116.39 56.7934C2113.65 61.2214 2112.27 67.155 2112.27 74.5941V113.118H2091.02Z" stroke="#767676" stroke-width="2" mask="url(#path-1-outside-1)"/>
<path d="M2163.54 89.4723C2163.54 91.8635 2164.47 93.9004 2166.33 95.583C2168.19 97.1771 2170.58 97.9742 2173.5 97.9742C2178.19 97.9742 2182.18 96.3801 2185.45 93.1919C2188.73 90.0037 2190.37 85.7528 2190.37 80.4391V75.1255C2185.23 76.3653 2181.16 77.2066 2178.15 77.6494C2168.41 79.0664 2163.54 83.0074 2163.54 89.4723ZM2142.02 91.3321C2142.02 84.0701 2144.81 78.048 2150.39 73.2657C2155.97 68.4834 2164.16 65.2952 2174.96 63.7011C2183.81 62.2841 2188.95 61.3542 2190.37 60.9114V56.7934C2190.37 53.5166 2189.22 51.1255 2186.91 49.6199C2184.7 48.0258 2181.78 47.2288 2178.15 47.2288C2169.83 47.2288 2162.65 50.5055 2156.63 57.059L2144.15 46.2989C2152.83 35.9373 2164.07 30.7565 2177.88 30.7565C2190.1 30.7565 2198.78 33.679 2203.91 39.524C2209.05 45.369 2211.62 53.6494 2211.62 64.3653V113.118H2191.03V104.882C2189.44 107.893 2186.78 110.417 2183.06 112.454C2179.34 114.491 2175.09 115.509 2170.31 115.509C2161.64 115.509 2154.73 113.295 2149.59 108.867C2144.55 104.351 2142.02 98.5055 2142.02 91.3321Z" stroke="#767676" stroke-width="2" mask="url(#path-1-outside-1)"/>
<path d="M2220.91 51.0812V33.1476H2232.34V10.4317H2253.32V33.1476H2269.92V51.0812H2253.32V86.2841C2253.32 92.1292 2255.89 95.0517 2261.02 95.0517H2270.06V113.118H2258.37C2241.01 113.118 2232.34 104.572 2232.34 87.4797V51.0812H2220.91Z" stroke="#767676" stroke-width="2" mask="url(#path-1-outside-1)"/>
<path d="M2278.02 72.8672C2278.02 59.8487 2281.65 49.5756 2288.91 42.048C2296.18 34.5203 2305.16 30.7565 2315.88 30.7565C2326.24 30.7565 2335 34.6531 2342.17 42.4465C2349.43 50.1513 2353.06 60.2915 2353.06 72.8672C2353.06 75.4354 2352.93 78.0037 2352.67 80.572H2299.54C2299.54 85.6199 2301.13 89.9151 2304.32 93.4576C2307.51 96.9114 2311.8 98.6384 2317.2 98.6384C2321.19 98.6384 2324.64 97.6642 2327.56 95.7159C2330.57 93.679 2332.83 91.1107 2334.34 88.0111L2352 94.2546C2349.34 100.188 2345.01 105.236 2338.99 109.399C2332.96 113.472 2325.48 115.509 2316.54 115.509C2305.3 115.509 2296.04 111.657 2288.78 103.952C2281.61 96.2472 2278.02 85.8856 2278.02 72.8672ZM2299.67 66.0923H2331.41C2331.41 60.9557 2330.04 56.572 2327.3 52.941C2324.64 49.2214 2320.83 47.3616 2315.88 47.3616C2310.83 47.3616 2306.84 49.2214 2303.92 52.941C2301.09 56.6605 2299.67 61.0443 2299.67 66.0923Z" stroke="#767676" stroke-width="2" mask="url(#path-1-outside-1)"/>
<path d="M2383.21 71.5387C2383.21 78.8893 2384.54 84.5129 2387.2 88.4096C2389.85 92.2177 2393.35 94.1218 2397.69 94.1218C2402.03 94.1218 2405.48 92.2177 2408.05 88.4096C2410.62 84.6015 2411.9 78.9779 2411.9 71.5387C2411.9 64.1882 2410.57 58.5646 2407.92 54.6679C2405.35 50.7712 2401.94 48.8229 2397.69 48.8229C2393.26 48.8229 2389.72 50.8155 2387.06 54.8007C2384.5 58.6974 2383.21 64.2768 2383.21 71.5387ZM2361.43 71.6716C2361.43 59.0959 2364.57 49.1328 2370.86 41.7823C2377.24 34.4317 2385.25 30.7565 2394.9 30.7565C2399.06 30.7565 2402.6 31.7306 2405.52 33.679C2408.45 35.6273 2410.57 37.7528 2411.9 40.0554V33.1476H2433.15V101.03C2433.15 116.085 2430.05 127.155 2423.85 134.24C2417.74 141.413 2408.45 145 2395.96 145C2382.06 145 2371.35 139.686 2363.82 129.059L2377.63 119.229C2382.5 125.162 2388.75 128.129 2396.36 128.129C2400.35 128.129 2403.8 126.668 2406.72 123.745C2409.73 120.823 2411.41 117.059 2411.77 112.454C2412.03 109.266 2412.17 106.697 2412.17 104.749C2410.57 106.875 2408.14 108.646 2404.86 110.063C2401.67 111.48 2398.57 112.188 2395.56 112.188C2385.47 112.188 2377.24 108.513 2370.86 101.162C2364.57 93.8118 2361.43 83.9816 2361.43 71.6716Z" stroke="#767676" stroke-width="2" mask="url(#path-1-outside-1)"/>
<path d="M2449.75 24.6458V2.85978H2471.13V24.6458H2449.75ZM2450.02 113.118V33.1476H2471V113.118H2450.02Z" stroke="#767676" stroke-width="2" mask="url(#path-1-outside-1)"/>
<path d="M2484.28 73.1328C2484.28 60.0258 2487.82 49.7085 2494.91 42.1808C2501.99 34.5646 2511.02 30.7565 2522 30.7565C2530.5 30.7565 2537.54 33.369 2543.12 38.5941C2548.7 43.8192 2552.15 49.6642 2553.48 56.1292L2535.55 61.0443C2534.66 57.7675 2533.11 54.9336 2530.9 52.5424C2528.69 50.0627 2525.85 48.8229 2522.4 48.8229C2517.09 48.8229 2513.06 51.1255 2510.31 55.7306C2507.57 60.3358 2506.2 66.1365 2506.2 73.1328C2506.2 81.0148 2507.7 87.0369 2510.71 91.1993C2513.81 95.3616 2517.71 97.4428 2522.4 97.4428C2526.3 97.4428 2529.57 96.1144 2532.23 93.4576C2534.89 90.8007 2536.61 87.7454 2537.41 84.2915L2555.34 89.0738C2553.83 95.9816 2549.98 102.137 2543.78 107.539C2537.59 112.852 2530.33 115.509 2522 115.509C2510.85 115.509 2501.77 111.657 2494.78 103.952C2487.78 96.2472 2484.28 85.9742 2484.28 73.1328Z" stroke="#767676" stroke-width="2" mask="url(#path-1-outside-1)"/>
<path d="M2595.45 58.6531C2595.45 41.3838 2600.01 27.6125 2609.13 17.3395C2618.34 7.06642 2630.16 1.92989 2644.59 1.92989C2654.24 1.92989 2662.56 4.58672 2669.56 9.90037C2676.55 15.1255 2681.69 21.7232 2684.96 29.6937L2665.97 35.8044C2663.49 31.3764 2660.62 27.7897 2657.34 25.0443C2654.06 22.2989 2649.77 20.9262 2644.46 20.9262C2636.4 20.9262 2629.98 24.3801 2625.2 31.2878C2620.51 38.107 2618.16 47.2288 2618.16 58.6531C2618.16 70.2546 2620.55 79.5092 2625.33 86.417C2630.11 93.2362 2636.49 96.6458 2644.46 96.6458C2649.77 96.6458 2654.51 94.9188 2658.67 91.4649C2662.92 88.0111 2665.93 83.8487 2667.7 78.9779L2687.62 85.2214C2686.56 87.8782 2685.27 90.4908 2683.77 93.059C2682.26 95.6273 2680.23 98.3284 2677.66 101.162C2675.18 103.908 2672.39 106.343 2669.29 108.469C2666.28 110.506 2662.61 112.188 2658.27 113.517C2654.02 114.845 2649.46 115.509 2644.59 115.509C2630.42 115.509 2618.69 110.461 2609.39 100.365C2600.1 90.2694 2595.45 76.3653 2595.45 58.6531Z" stroke="#767676" stroke-width="2" mask="url(#path-1-outside-1)"/>
<path d="M2715.91 73.1328C2715.91 81.9004 2717.55 88.1439 2720.82 91.8635C2724.1 95.583 2727.73 97.4428 2731.71 97.4428C2733.4 97.4428 2735.04 97.0886 2736.63 96.3801C2738.31 95.583 2739.99 94.3875 2741.68 92.7934C2743.36 91.1107 2744.73 88.5867 2745.79 85.2214C2746.86 81.7675 2747.39 77.738 2747.39 73.1328C2747.39 68.4391 2746.86 64.4096 2745.79 61.0443C2744.82 57.679 2743.45 55.155 2741.68 53.4723C2739.99 51.7897 2738.31 50.5941 2736.63 49.8856C2735.04 49.1771 2733.4 48.8229 2731.71 48.8229C2727.73 48.8229 2724.1 50.6827 2720.82 54.4022C2717.55 58.0332 2715.91 64.2768 2715.91 73.1328ZM2694.13 73.1328C2694.13 67.6421 2694.84 62.4613 2696.25 57.5904C2697.67 52.631 2699.8 48.1144 2702.63 44.0406C2705.55 39.9668 2709.49 36.7343 2714.45 34.3432C2719.5 31.952 2725.25 30.7565 2731.71 30.7565C2738.18 30.7565 2743.89 31.952 2748.85 34.3432C2753.81 36.7343 2757.7 39.9668 2760.54 44.0406C2763.46 48.1144 2765.63 52.631 2767.04 57.5904C2768.46 62.4613 2769.17 67.6421 2769.17 73.1328C2769.17 76.6753 2768.86 80.2177 2768.24 83.7601C2767.62 87.214 2766.42 90.9336 2764.65 94.9188C2762.97 98.8155 2760.8 102.269 2758.14 105.28C2755.49 108.203 2751.86 110.638 2747.25 112.587C2742.74 114.535 2737.56 115.509 2731.71 115.509C2725.96 115.509 2720.82 114.579 2716.31 112.72C2711.79 110.86 2708.16 108.513 2705.42 105.679C2702.67 102.756 2700.42 99.3911 2698.64 95.583C2696.96 91.6863 2695.77 87.9225 2695.06 84.2915C2694.44 80.6605 2694.13 76.941 2694.13 73.1328Z" stroke="#767676" stroke-width="2" mask="url(#path-1-outside-1)"/>
<path d="M2781.39 113.118V33.1476H2801.71V40.9852H2801.84C2806.18 34.1661 2812.95 30.7565 2822.16 30.7565C2839.78 30.7565 2848.59 41.1181 2848.59 61.8413V113.118H2827.47V64.3653C2827.47 58.6974 2826.68 54.7122 2825.08 52.4096C2823.49 50.0185 2820.97 48.8229 2817.51 48.8229C2813.09 48.8229 2809.5 50.6384 2806.75 54.2694C2804.01 57.8118 2802.64 62.2841 2802.64 67.6863V113.118H2781.39Z" stroke="#767676" stroke-width="2" mask="url(#path-1-outside-1)"/>
<path d="M2858.42 95.8487L2873.29 87.0812C2878.69 94.6974 2885.47 98.5055 2893.61 98.5055C2896.98 98.5055 2899.59 97.797 2901.45 96.3801C2903.4 94.8745 2904.37 93.059 2904.37 90.9336C2904.37 90.2251 2904.24 89.5166 2903.97 88.8081C2903.8 88.0996 2903.44 87.4797 2902.91 86.9483C2902.47 86.3284 2901.98 85.797 2901.45 85.3542C2900.92 84.9114 2900.17 84.4686 2899.19 84.0258C2898.31 83.4945 2897.51 83.0959 2896.8 82.8303C2896.09 82.476 2895.12 82.0775 2893.88 81.6347C2892.73 81.1919 2891.75 80.8819 2890.96 80.7048C2890.16 80.4391 2889.05 80.0849 2887.64 79.6421C2886.22 79.1993 2885.16 78.845 2884.45 78.5793C2877.72 76.3653 2872.32 73.4871 2868.25 69.9447C2864.26 66.4022 2862.27 61.2214 2862.27 54.4022C2862.27 47.1402 2865.37 41.3838 2871.57 37.1328C2877.85 32.8819 2885.25 30.7565 2893.75 30.7565C2900.39 30.7565 2906.72 32.5277 2912.74 36.0701C2918.85 39.524 2923.41 44.0849 2926.42 49.7528L2912.47 57.9889C2906.81 51.1697 2900.65 47.7601 2894.01 47.7601C2890.83 47.7601 2888.3 48.4244 2886.44 49.7528C2884.67 51.0812 2883.79 52.7638 2883.79 54.8007C2883.79 55.7749 2883.96 56.7048 2884.32 57.5904C2884.67 58.3875 2885.25 59.1402 2886.04 59.8487C2886.93 60.5572 2887.73 61.1771 2888.43 61.7085C2889.23 62.2399 2890.34 62.7712 2891.75 63.3026C2893.26 63.8339 2894.41 64.2768 2895.21 64.631C2896.09 64.8967 2897.47 65.3395 2899.33 65.9594C2901.18 66.4908 2902.51 66.8893 2903.31 67.155C2918.54 72.2915 2926.15 80.3063 2926.15 91.1993C2926.15 97.9299 2923.41 103.686 2917.92 108.469C2912.43 113.162 2904.55 115.509 2894.28 115.509C2886.22 115.509 2879 113.738 2872.63 110.196C2866.34 106.565 2861.61 101.782 2858.42 95.8487Z" stroke="#767676" stroke-width="2" mask="url(#path-1-outside-1)"/>
<path d="M2936.91 83.6273V33.1476H2958.16V81.369C2958.16 92.0849 2961.75 97.4428 2968.92 97.4428C2973.17 97.4428 2976.49 95.4945 2978.88 91.5978C2981.36 87.6125 2982.6 82.9188 2982.6 77.5166V33.1476H3003.85V113.118H2983.53V105.945H2983.13C2981.63 108.601 2979.19 110.86 2975.83 112.72C2972.46 114.579 2968.61 115.509 2964.27 115.509C2961.97 115.509 2959.71 115.288 2957.5 114.845C2955.37 114.491 2952.98 113.649 2950.33 112.321C2947.76 110.904 2945.5 109.089 2943.55 106.875C2941.69 104.661 2940.1 101.561 2938.77 97.5756C2937.53 93.5018 2936.91 88.8524 2936.91 83.6273Z" stroke="#767676" stroke-width="2" mask="url(#path-1-outside-1)"/>
<path d="M3021.65 113.118V1H3042.9V113.118H3021.65Z" stroke="#767676" stroke-width="2" mask="url(#path-1-outside-1)"/>
<path d="M3054.58 51.0812V33.1476H3066.01V10.4317H3086.99V33.1476H3103.59V51.0812H3086.99V86.2841C3086.99 92.1292 3089.56 95.0517 3094.69 95.0517H3103.73V113.118H3092.04C3074.68 113.118 3066.01 104.572 3066.01 87.4797V51.0812H3054.58Z" stroke="#767676" stroke-width="2" mask="url(#path-1-outside-1)"/>
<path d="M3116.61 24.6458V2.85978H3137.99V24.6458H3116.61ZM3116.87 113.118V33.1476H3137.86V113.118H3116.87Z" stroke="#767676" stroke-width="2" mask="url(#path-1-outside-1)"/>
<path d="M3155.26 113.118V33.1476H3175.58V40.9852H3175.71C3180.05 34.1661 3186.82 30.7565 3196.03 30.7565C3213.65 30.7565 3222.46 41.1181 3222.46 61.8413V113.118H3201.34V64.3653C3201.34 58.6974 3200.55 54.7122 3198.95 52.4096C3197.36 50.0185 3194.84 48.8229 3191.38 48.8229C3186.95 48.8229 3183.37 50.6384 3180.62 54.2694C3177.88 57.8118 3176.51 62.2841 3176.51 67.6863V113.118H3155.26Z" stroke="#767676" stroke-width="2" mask="url(#path-1-outside-1)"/>
<path d="M3256.06 71.5387C3256.06 78.8893 3257.39 84.5129 3260.05 88.4096C3262.7 92.2177 3266.2 94.1218 3270.54 94.1218C3274.88 94.1218 3278.33 92.2177 3280.9 88.4096C3283.47 84.6015 3284.75 78.9779 3284.75 71.5387C3284.75 64.1882 3283.42 58.5646 3280.77 54.6679C3278.2 50.7712 3274.79 48.8229 3270.54 48.8229C3266.11 48.8229 3262.57 50.8155 3259.91 54.8007C3257.35 58.6974 3256.06 64.2768 3256.06 71.5387ZM3234.28 71.6716C3234.28 59.0959 3237.42 49.1328 3243.71 41.7823C3250.09 34.4317 3258.1 30.7565 3267.75 30.7565C3271.91 30.7565 3275.45 31.7306 3278.37 33.679C3281.3 35.6273 3283.42 37.7528 3284.75 40.0554V33.1476H3306V101.03C3306 116.085 3302.9 127.155 3296.7 134.24C3290.59 141.413 3281.3 145 3268.81 145C3254.91 145 3244.2 139.686 3236.67 129.059L3250.48 119.229C3255.35 125.162 3261.6 128.129 3269.21 128.129C3273.2 128.129 3276.65 126.668 3279.57 123.745C3282.58 120.823 3284.26 117.059 3284.62 112.454C3284.88 109.266 3285.02 106.697 3285.02 104.749C3283.42 106.875 3280.99 108.646 3277.71 110.063C3274.52 111.48 3271.42 112.188 3268.41 112.188C3258.32 112.188 3250.09 108.513 3243.71 101.162C3237.42 93.8118 3234.28 83.9816 3234.28 71.6716Z" stroke="#767676" stroke-width="2" mask="url(#path-1-outside-1)"/>
</svg>
